# Tiled2Unity generated file. Do not modify by hand.
# Wavefront file for 'Map_mesh_0005.obj'

# Vertices (Count = 464)
v -34 -88 0
v -36 -88 0
v -36 -86 0
v -34 -86 0
v -36 -88 0
v -38 -88 0
v -38 -86 0
v -36 -86 0
v -38 -88 0
v -40 -88 0
v -40 -86 0
v -38 -86 0
v -24 -92 0
v -26 -92 0
v -26 -90 0
v -24 -90 0
v -26 -92 0
v -28 -92 0
v -28 -90 0
v -26 -90 0
v -28 -92 0
v -30 -92 0
v -30 -90 0
v -28 -90 0
v -40 -92 0
v -42 -92 0
v -42 -90 0
v -40 -90 0
v -50 -92 0
v -52 -92 0
v -52 -90 0
v -50 -90 0
v -52 -92 0
v -54 -92 0
v -54 -90 0
v -52 -90 0
v -14 -94 0
v -16 -94 0
v -16 -92 0
v -14 -92 0
v -16 -94 0
v -18 -94 0
v -18 -92 0
v -16 -92 0
v -18 -94 0
v -20 -94 0
v -20 -92 0
v -18 -92 0
v -20 -94 0
v -22 -94 0
v -22 -92 0
v -20 -92 0
v -22 -94 0
v -24 -94 0
v -24 -92 0
v -22 -92 0
v -42 -94 0
v -44 -94 0
v -44 -92 0
v -42 -92 0
v -48 -94 0
v -50 -94 0
v -50 -92 0
v -48 -92 0
v -54 -94 0
v -56 -94 0
v -56 -92 0
v -54 -92 0
v -56 -94 0
v -58 -94 0
v -58 -92 0
v -56 -92 0
v -58 -94 0
v -60 -94 0
v -60 -92 0
v -58 -92 0
v 0 -96 0
v -2 -96 0
v -2 -94 0
v 0 -94 0
v -2 -96 0
v -4 -96 0
v -4 -94 0
v -2 -94 0
v -8 -96 0
v -10 -96 0
v -10 -94 0
v -8 -94 0
v -10 -96 0
v -12 -96 0
v -12 -94 0
v -10 -94 0
v -44 -96 0
v -46 -96 0
v -46 -94 0
v -44 -94 0
v -46 -96 0
v -48 -96 0
v -48 -94 0
v -46 -94 0
v -6 -98 0
v -8 -98 0
v -8 -96 0
v -6 -96 0
v -12 -98 0
v -14 -98 0
v -14 -96 0
v -12 -96 0
v -26 -102 0
v -28 -102 0
v -28 -100 0
v -26 -100 0
v -4 -104 0
v -6 -104 0
v -6 -102 0
v -4 -102 0
v -8 -104 0
v -10 -104 0
v -10 -102 0
v -8 -102 0
v -60 -104 0
v -62 -104 0
v -62 -102 0
v -60 -102 0
v -62 -104 0
v -64 -104 0
v -64 -102 0
v -62 -102 0
v -64 -104 0
v -66 -104 0
v -66 -102 0
v -64 -102 0
v -66 -104 0
v -68 -104 0
v -68 -102 0
v -66 -102 0
v -68 -104 0
v -70 -104 0
v -70 -102 0
v -68 -102 0
v -72 -104 0
v -74 -104 0
v -74 -102 0
v -72 -102 0
v -74 -104 0
v -76 -104 0
v -76 -102 0
v -74 -102 0
v -76 -104 0
v -78 -104 0
v -78 -102 0
v -76 -102 0
v -6 -106 0
v -8 -106 0
v -8 -104 0
v -6 -104 0
v -58 -106 0
v -60 -106 0
v -60 -104 0
v -58 -104 0
v -78 -106 0
v -80 -106 0
v -80 -104 0
v -78 -104 0
v -80 -106 0
v -82 -106 0
v -82 -104 0
v -80 -104 0
v -34 -108 0
v -36 -108 0
v -36 -106 0
v -34 -106 0
v -54 -108 0
v -56 -108 0
v -56 -106 0
v -54 -106 0
v -56 -108 0
v -58 -108 0
v -58 -106 0
v -56 -106 0
v -70 -108 0
v -72 -108 0
v -72 -106 0
v -70 -106 0
v -82 -108 0
v -84 -108 0
v -84 -106 0
v -82 -106 0
v -84 -108 0
v -86 -108 0
v -86 -106 0
v -84 -106 0
v -86 -108 0
v -88 -108 0
v -88 -106 0
v -86 -106 0
v -88 -110 0
v -90 -110 0
v -90 -108 0
v -88 -108 0
v -98 -110 0
v -100 -110 0
v -100 -108 0
v -98 -108 0
v -28 -112 0
v -30 -112 0
v -30 -110 0
v -28 -110 0
v -30 -112 0
v -32 -112 0
v -32 -110 0
v -30 -110 0
v -32 -112 0
v -34 -112 0
v -34 -110 0
v -32 -110 0
v -90 -112 0
v -92 -112 0
v -92 -110 0
v -90 -110 0
v -92 -112 0
v -94 -112 0
v -94 -110 0
v -92 -110 0
v -26 -114 0
v -28 -114 0
v -28 -112 0
v -26 -112 0
v -94 -114 0
v -96 -114 0
v -96 -112 0
v -94 -112 0
v -96 -114 0
v -98 -114 0
v -98 -112 0
v -96 -112 0
v -34 -116 0
v -36 -116 0
v -36 -114 0
v -34 -114 0
v -64 -116 0
v -66 -116 0
v -66 -114 0
v -64 -114 0
v -66 -116 0
v -68 -116 0
v -68 -114 0
v -66 -114 0
v -68 -116 0
v -70 -116 0
v -70 -114 0
v -68 -114 0
v -70 -116 0
v -72 -116 0
v -72 -114 0
v -70 -114 0
v -52 -118 0
v -54 -118 0
v -54 -116 0
v -52 -116 0
v -54 -118 0
v -56 -118 0
v -56 -116 0
v -54 -116 0
v -56 -118 0
v -58 -118 0
v -58 -116 0
v -56 -116 0
v -58 -118 0
v -60 -118 0
v -60 -116 0
v -58 -116 0
v -60 -118 0
v -62 -118 0
v -62 -116 0
v -60 -116 0
v -62 -118 0
v -64 -118 0
v -64 -116 0
v -62 -116 0
v -22 -120 0
v -24 -120 0
v -24 -118 0
v -22 -118 0
v -50 -120 0
v -52 -120 0
v -52 -118 0
v -50 -118 0
v -72 -120 0
v -74 -120 0
v -74 -118 0
v -72 -118 0
v -46 -122 0
v -48 -122 0
v -48 -120 0
v -46 -120 0
v -48 -122 0
v -50 -122 0
v -50 -120 0
v -48 -120 0
v -74 -122 0
v -76 -122 0
v -76 -120 0
v -74 -120 0
v -30 -124 0
v -32 -124 0
v -32 -122 0
v -30 -122 0
v -32 -124 0
v -34 -124 0
v -34 -122 0
v -32 -122 0
v -34 -124 0
v -36 -124 0
v -36 -122 0
v -34 -122 0
v -42 -124 0
v -44 -124 0
v -44 -122 0
v -42 -122 0
v -44 -124 0
v -46 -124 0
v -46 -122 0
v -44 -122 0
v -28 -126 0
v -30 -126 0
v -30 -124 0
v -28 -124 0
v -36 -126 0
v -38 -126 0
v -38 -124 0
v -36 -124 0
v -26 -128 0
v -28 -128 0
v -28 -126 0
v -26 -126 0
v -74 -130 0
v -76 -130 0
v -76 -128 0
v -74 -128 0
v -86 -130 0
v -88 -130 0
v -88 -128 0
v -86 -128 0
v -24 -132 0
v -26 -132 0
v -26 -130 0
v -24 -130 0
v -18 -134 0
v -20 -134 0
v -20 -132 0
v -18 -132 0
v -76 -134 0
v -78 -134 0
v -78 -132 0
v -76 -132 0
v -82 -134 0
v -84 -134 0
v -84 -132 0
v -82 -132 0
v -84 -134 0
v -86 -134 0
v -86 -132 0
v -84 -132 0
v -20 -136 0
v -22 -136 0
v -22 -134 0
v -20 -134 0
v -38 -136 0
v -40 -136 0
v -40 -134 0
v -38 -134 0
v -78 -136 0
v -80 -136 0
v -80 -134 0
v -78 -134 0
v -80 -136 0
v -82 -136 0
v -82 -134 0
v -80 -134 0
v -22 -138 0
v -24 -138 0
v -24 -136 0
v -22 -136 0
v -24 -142 0
v -26 -142 0
v -26 -140 0
v -24 -140 0
v -24 -148 0
v -26 -148 0
v -26 -146 0
v -24 -146 0
v -38 -150 0
v -40 -150 0
v -40 -148 0
v -38 -148 0
v -44 -150 0
v -46 -150 0
v -46 -148 0
v -44 -148 0
v -26 -154 0
v -28 -154 0
v -28 -152 0
v -26 -152 0
v -32 -156 0
v -34 -156 0
v -34 -154 0
v -32 -154 0
v -28 -158 0
v -30 -158 0
v -30 -156 0
v -28 -156 0
v -30 -158 0
v -32 -158 0
v -32 -156 0
v -30 -156 0
v -30 -174 0
v -32 -174 0
v -32 -172 0
v -30 -172 0
v -32 -174 0
v -34 -174 0
v -34 -172 0
v -32 -172 0
v -34 -174 0
v -36 -174 0
v -36 -172 0
v -34 -172 0
v -36 -174 0
v -38 -174 0
v -38 -172 0
v -36 -172 0
v -38 -176 0
v -40 -176 0
v -40 -174 0
v -38 -174 0
v -24 -178 0
v -26 -178 0
v -26 -176 0
v -24 -176 0
v -26 -178 0
v -28 -178 0
v -28 -176 0
v -26 -176 0
v -28 -178 0
v -30 -178 0
v -30 -176 0
v -28 -176 0
v -50 -192 0
v -52 -192 0
v -52 -190 0
v -50 -190 0
v -38 -196 0
v -40 -196 0
v -40 -194 0
v -38 -194 0
v -40 -196 0
v -42 -196 0
v -42 -194 0
v -40 -194 0
v -48 -198 0
v -50 -198 0
v -50 -196 0
v -48 -196 0

# Texture cooridinates (Count = 10)
vt 0.125 0.5277778
vt 0.15 0.5277778
vt 0.15 0.5555556
vt 0.125 0.5555556
vt 0.125 0.4722222
vt 0.15 0.4722222
vt 0.15 0.5
vt 0.125 0.5
vt 0.175 0.5277778
vt 0.175 0.5555556

# Normal
vn 0 0 -1

# Mesh description
g Map_mesh_0005

# Faces
f 1/1/1 2/2/1 3/3/1 4/4/1
f 5/5/1 6/6/1 7/7/1 8/8/1
f 9/2/1 10/9/1 11/10/1 12/3/1
f 13/1/1 14/2/1 15/3/1 16/4/1
f 17/5/1 18/6/1 19/7/1 20/8/1
f 21/2/1 22/9/1 23/10/1 24/3/1
f 25/2/1 26/9/1 27/10/1 28/3/1
f 29/1/1 30/2/1 31/3/1 32/4/1
f 33/2/1 34/9/1 35/10/1 36/3/1
f 37/1/1 38/2/1 39/3/1 40/4/1
f 41/5/1 42/6/1 43/7/1 44/8/1
f 45/5/1 46/6/1 47/7/1 48/8/1
f 49/5/1 50/6/1 51/7/1 52/8/1
f 53/5/1 54/6/1 55/7/1 56/8/1
f 57/2/1 58/9/1 59/10/1 60/3/1
f 61/1/1 62/2/1 63/3/1 64/4/1
f 65/5/1 66/6/1 67/7/1 68/8/1
f 69/5/1 70/6/1 71/7/1 72/8/1
f 73/2/1 74/9/1 75/10/1 76/3/1
f 77/5/1 78/6/1 79/7/1 80/8/1
f 81/2/1 82/9/1 83/10/1 84/3/1
f 85/1/1 86/2/1 87/3/1 88/4/1
f 89/2/1 90/9/1 91/10/1 92/3/1
f 93/5/1 94/6/1 95/7/1 96/8/1
f 97/5/1 98/6/1 99/7/1 100/8/1
f 101/1/1 102/2/1 103/3/1 104/4/1
f 105/5/1 106/6/1 107/7/1 108/8/1
f 109/2/1 110/9/1 111/10/1 112/3/1
f 113/2/1 114/9/1 115/10/1 116/3/1
f 117/1/1 118/2/1 119/3/1 120/4/1
f 121/1/1 122/2/1 123/3/1 124/4/1
f 125/5/1 126/6/1 127/7/1 128/8/1
f 129/5/1 130/6/1 131/7/1 132/8/1
f 133/5/1 134/6/1 135/7/1 136/8/1
f 137/2/1 138/9/1 139/10/1 140/3/1
f 141/1/1 142/2/1 143/3/1 144/4/1
f 145/5/1 146/6/1 147/7/1 148/8/1
f 149/2/1 150/9/1 151/10/1 152/3/1
f 153/5/1 154/6/1 155/7/1 156/8/1
f 157/1/1 158/2/1 159/3/1 160/4/1
f 161/5/1 162/6/1 163/7/1 164/8/1
f 165/2/1 166/9/1 167/10/1 168/3/1
f 169/1/1 170/2/1 171/3/1 172/4/1
f 173/1/1 174/2/1 175/3/1 176/4/1
f 177/5/1 178/6/1 179/7/1 180/8/1
f 181/2/1 182/9/1 183/10/1 184/3/1
f 185/5/1 186/6/1 187/7/1 188/8/1
f 189/5/1 190/6/1 191/7/1 192/8/1
f 193/2/1 194/9/1 195/10/1 196/3/1
f 197/2/1 198/9/1 199/10/1 200/3/1
f 201/1/1 202/2/1 203/3/1 204/4/1
f 205/1/1 206/2/1 207/3/1 208/4/1
f 209/5/1 210/6/1 211/7/1 212/8/1
f 213/2/1 214/9/1 215/10/1 216/3/1
f 217/5/1 218/6/1 219/7/1 220/8/1
f 221/2/1 222/9/1 223/10/1 224/3/1
f 225/1/1 226/2/1 227/3/1 228/4/1
f 229/5/1 230/6/1 231/7/1 232/8/1
f 233/5/1 234/6/1 235/7/1 236/8/1
f 237/2/1 238/9/1 239/10/1 240/3/1
f 241/1/1 242/2/1 243/3/1 244/4/1
f 245/5/1 246/6/1 247/7/1 248/8/1
f 249/5/1 250/6/1 251/7/1 252/8/1
f 253/2/1 254/9/1 255/10/1 256/3/1
f 257/1/1 258/2/1 259/3/1 260/4/1
f 261/5/1 262/6/1 263/7/1 264/8/1
f 265/5/1 266/6/1 267/7/1 268/8/1
f 269/5/1 270/6/1 271/7/1 272/8/1
f 273/5/1 274/6/1 275/7/1 276/8/1
f 277/5/1 278/6/1 279/7/1 280/8/1
f 281/2/1 282/9/1 283/10/1 284/3/1
f 285/1/1 286/2/1 287/3/1 288/4/1
f 289/2/1 290/9/1 291/10/1 292/3/1
f 293/1/1 294/2/1 295/3/1 296/4/1
f 297/5/1 298/6/1 299/7/1 300/8/1
f 301/2/1 302/9/1 303/10/1 304/3/1
f 305/1/1 306/2/1 307/3/1 308/4/1
f 309/5/1 310/6/1 311/7/1 312/8/1
f 313/2/1 314/9/1 315/10/1 316/3/1
f 317/1/1 318/2/1 319/3/1 320/4/1
f 321/5/1 322/6/1 323/7/1 324/8/1
f 325/1/1 326/2/1 327/3/1 328/4/1
f 329/2/1 330/9/1 331/10/1 332/3/1
f 333/1/1 334/2/1 335/3/1 336/4/1
f 337/2/1 338/9/1 339/10/1 340/3/1
f 341/1/1 342/2/1 343/3/1 344/4/1
f 345/1/1 346/2/1 347/3/1 348/4/1
f 349/2/1 350/9/1 351/10/1 352/3/1
f 353/2/1 354/9/1 355/10/1 356/3/1
f 357/1/1 358/2/1 359/3/1 360/4/1
f 361/5/1 362/6/1 363/7/1 364/8/1
f 365/2/1 366/9/1 367/10/1 368/3/1
f 369/2/1 370/9/1 371/10/1 372/3/1
f 373/5/1 374/6/1 375/7/1 376/8/1
f 377/5/1 378/6/1 379/7/1 380/8/1
f 381/2/1 382/9/1 383/10/1 384/3/1
f 385/2/1 386/9/1 387/10/1 388/3/1
f 389/2/1 390/9/1 391/10/1 392/3/1
f 393/2/1 394/9/1 395/10/1 396/3/1
f 397/1/1 398/2/1 399/3/1 400/4/1
f 401/2/1 402/9/1 403/10/1 404/3/1
f 405/1/1 406/2/1 407/3/1 408/4/1
f 409/5/1 410/6/1 411/7/1 412/8/1
f 413/5/1 414/6/1 415/7/1 416/8/1
f 417/1/1 418/2/1 419/3/1 420/4/1
f 421/5/1 422/6/1 423/7/1 424/8/1
f 425/5/1 426/6/1 427/7/1 428/8/1
f 429/2/1 430/9/1 431/10/1 432/3/1
f 433/2/1 434/9/1 435/10/1 436/3/1
f 437/5/1 438/6/1 439/7/1 440/8/1
f 441/5/1 442/6/1 443/7/1 444/8/1
f 445/5/1 446/6/1 447/7/1 448/8/1
f 449/1/1 450/2/1 451/3/1 452/4/1
f 453/5/1 454/6/1 455/7/1 456/8/1
f 457/2/1 458/9/1 459/10/1 460/3/1
f 461/1/1 462/2/1 463/3/1 464/4/1

