# Tiled2Unity generated file. Do not modify by hand.
# Wavefront file for 'Swamp_mesh_0006.obj'

# Vertices (Count = 836)
v -104 -8 0
v -106 -8 0
v -106 -6 0
v -104 -6 0
v -150 -8 0
v -152 -8 0
v -152 -6 0
v -150 -6 0
v -152 -8 0
v -154 -8 0
v -154 -6 0
v -152 -6 0
v -90 -10 0
v -92 -10 0
v -92 -8 0
v -90 -8 0
v -140 -10 0
v -142 -10 0
v -142 -8 0
v -140 -8 0
v -142 -10 0
v -144 -10 0
v -144 -8 0
v -142 -8 0
v -148 -10 0
v -150 -10 0
v -150 -8 0
v -148 -8 0
v -92 -12 0
v -94 -12 0
v -94 -10 0
v -92 -10 0
v -102 -12 0
v -104 -12 0
v -104 -10 0
v -102 -10 0
v -138 -12 0
v -140 -12 0
v -140 -10 0
v -138 -10 0
v -146 -14 0
v -148 -14 0
v -148 -12 0
v -146 -12 0
v -148 -14 0
v -150 -14 0
v -150 -12 0
v -148 -12 0
v -150 -14 0
v -152 -14 0
v -152 -12 0
v -150 -12 0
v -68 -16 0
v -70 -16 0
v -70 -14 0
v -68 -14 0
v -70 -16 0
v -72 -16 0
v -72 -14 0
v -70 -14 0
v -100 -16 0
v -102 -16 0
v -102 -14 0
v -100 -14 0
v -72 -18 0
v -74 -18 0
v -74 -16 0
v -72 -16 0
v -66 -20 0
v -68 -20 0
v -68 -18 0
v -66 -18 0
v -68 -20 0
v -70 -20 0
v -70 -18 0
v -68 -18 0
v -146 -20 0
v -148 -20 0
v -148 -18 0
v -146 -18 0
v -148 -20 0
v -150 -20 0
v -150 -18 0
v -148 -18 0
v -62 -22 0
v -64 -22 0
v -64 -20 0
v -62 -20 0
v -64 -22 0
v -66 -22 0
v -66 -20 0
v -64 -20 0
v -128 -22 0
v -130 -22 0
v -130 -20 0
v -128 -20 0
v -130 -22 0
v -132 -22 0
v -132 -20 0
v -130 -20 0
v -144 -22 0
v -146 -22 0
v -146 -20 0
v -144 -20 0
v -6 -24 0
v -8 -24 0
v -8 -22 0
v -6 -22 0
v -8 -24 0
v -10 -24 0
v -10 -22 0
v -8 -22 0
v -10 -24 0
v -12 -24 0
v -12 -22 0
v -10 -22 0
v -102 -24 0
v -104 -24 0
v -104 -22 0
v -102 -22 0
v -104 -24 0
v -106 -24 0
v -106 -22 0
v -104 -22 0
v -132 -24 0
v -134 -24 0
v -134 -22 0
v -132 -22 0
v -134 -24 0
v -136 -24 0
v -136 -22 0
v -134 -22 0
v -12 -26 0
v -14 -26 0
v -14 -24 0
v -12 -24 0
v -100 -26 0
v -102 -26 0
v -102 -24 0
v -100 -24 0
v -128 -26 0
v -130 -26 0
v -130 -24 0
v -128 -24 0
v -194 -26 0
v -196 -26 0
v -196 -24 0
v -194 -24 0
v -196 -26 0
v -198 -26 0
v -198 -24 0
v -196 -24 0
v -198 -26 0
v -200 -26 0
v -200 -24 0
v -198 -24 0
v -120 -28 0
v -122 -28 0
v -122 -26 0
v -120 -26 0
v -122 -28 0
v -124 -28 0
v -124 -26 0
v -122 -26 0
v -142 -28 0
v -144 -28 0
v -144 -26 0
v -142 -26 0
v -174 -28 0
v -176 -28 0
v -176 -26 0
v -174 -26 0
v -176 -28 0
v -178 -28 0
v -178 -26 0
v -176 -26 0
v -188 -28 0
v -190 -28 0
v -190 -26 0
v -188 -26 0
v -190 -28 0
v -192 -28 0
v -192 -26 0
v -190 -26 0
v -192 -28 0
v -194 -28 0
v -194 -26 0
v -192 -26 0
v -104 -30 0
v -106 -30 0
v -106 -28 0
v -104 -28 0
v -140 -30 0
v -142 -30 0
v -142 -28 0
v -140 -28 0
v -166 -30 0
v -168 -30 0
v -168 -28 0
v -166 -28 0
v -168 -30 0
v -170 -30 0
v -170 -28 0
v -168 -28 0
v -170 -30 0
v -172 -30 0
v -172 -28 0
v -170 -28 0
v -172 -30 0
v -174 -30 0
v -174 -28 0
v -172 -28 0
v -112 -32 0
v -114 -32 0
v -114 -30 0
v -112 -30 0
v -114 -32 0
v -116 -32 0
v -116 -30 0
v -114 -30 0
v -10 -34 0
v -12 -34 0
v -12 -32 0
v -10 -32 0
v -12 -34 0
v -14 -34 0
v -14 -32 0
v -12 -32 0
v -20 -34 0
v -22 -34 0
v -22 -32 0
v -20 -32 0
v -22 -34 0
v -24 -34 0
v -24 -32 0
v -22 -32 0
v -50 -34 0
v -52 -34 0
v -52 -32 0
v -50 -32 0
v -52 -34 0
v -54 -34 0
v -54 -32 0
v -52 -32 0
v -54 -34 0
v -56 -34 0
v -56 -32 0
v -54 -32 0
v -56 -34 0
v -58 -34 0
v -58 -32 0
v -56 -32 0
v -82 -34 0
v -84 -34 0
v -84 -32 0
v -82 -32 0
v -84 -34 0
v -86 -34 0
v -86 -32 0
v -84 -32 0
v -86 -34 0
v -88 -34 0
v -88 -32 0
v -86 -32 0
v -88 -34 0
v -90 -34 0
v -90 -32 0
v -88 -32 0
v -116 -34 0
v -118 -34 0
v -118 -32 0
v -116 -32 0
v -118 -34 0
v -120 -34 0
v -120 -32 0
v -118 -32 0
v -166 -34 0
v -168 -34 0
v -168 -32 0
v -166 -32 0
v -14 -36 0
v -16 -36 0
v -16 -34 0
v -14 -34 0
v -24 -36 0
v -26 -36 0
v -26 -34 0
v -24 -34 0
v -26 -36 0
v -28 -36 0
v -28 -34 0
v -26 -34 0
v -48 -36 0
v -50 -36 0
v -50 -34 0
v -48 -34 0
v -80 -36 0
v -82 -36 0
v -82 -34 0
v -80 -34 0
v -120 -36 0
v -122 -36 0
v -122 -34 0
v -120 -34 0
v -122 -36 0
v -124 -36 0
v -124 -34 0
v -122 -34 0
v -22 -38 0
v -24 -38 0
v -24 -36 0
v -22 -36 0
v -28 -38 0
v -30 -38 0
v -30 -36 0
v -28 -36 0
v -46 -38 0
v -48 -38 0
v -48 -36 0
v -46 -36 0
v -104 -38 0
v -106 -38 0
v -106 -36 0
v -104 -36 0
v -106 -38 0
v -108 -38 0
v -108 -36 0
v -106 -36 0
v -108 -38 0
v -110 -38 0
v -110 -36 0
v -108 -36 0
v -110 -40 0
v -112 -40 0
v -112 -38 0
v -110 -38 0
v -140 -40 0
v -142 -40 0
v -142 -38 0
v -140 -38 0
v -142 -40 0
v -144 -40 0
v -144 -38 0
v -142 -38 0
v -152 -40 0
v -154 -40 0
v -154 -38 0
v -152 -38 0
v -154 -40 0
v -156 -40 0
v -156 -38 0
v -154 -38 0
v -24 -44 0
v -26 -44 0
v -26 -42 0
v -24 -42 0
v -26 -44 0
v -28 -44 0
v -28 -42 0
v -26 -42 0
v -28 -44 0
v -30 -44 0
v -30 -42 0
v -28 -42 0
v -30 -44 0
v -32 -44 0
v -32 -42 0
v -30 -42 0
v -54 -44 0
v -56 -44 0
v -56 -42 0
v -54 -42 0
v -56 -44 0
v -58 -44 0
v -58 -42 0
v -56 -42 0
v -144 -44 0
v -146 -44 0
v -146 -42 0
v -144 -42 0
v -32 -46 0
v -34 -46 0
v -34 -44 0
v -32 -44 0
v -34 -46 0
v -36 -46 0
v -36 -44 0
v -34 -44 0
v -58 -46 0
v -60 -46 0
v -60 -44 0
v -58 -44 0
v -150 -46 0
v -152 -46 0
v -152 -44 0
v -150 -44 0
v -152 -46 0
v -154 -46 0
v -154 -44 0
v -152 -44 0
v -158 -46 0
v -160 -46 0
v -160 -44 0
v -158 -44 0
v -160 -46 0
v -162 -46 0
v -162 -44 0
v -160 -44 0
v -174 -46 0
v -176 -46 0
v -176 -44 0
v -174 -44 0
v -176 -46 0
v -178 -46 0
v -178 -44 0
v -176 -44 0
v -178 -46 0
v -180 -46 0
v -180 -44 0
v -178 -44 0
v -180 -46 0
v -182 -46 0
v -182 -44 0
v -180 -44 0
v -12 -48 0
v -14 -48 0
v -14 -46 0
v -12 -46 0
v -14 -48 0
v -16 -48 0
v -16 -46 0
v -14 -46 0
v -16 -48 0
v -18 -48 0
v -18 -46 0
v -16 -46 0
v -18 -48 0
v -20 -48 0
v -20 -46 0
v -18 -46 0
v -82 -48 0
v -84 -48 0
v -84 -46 0
v -82 -46 0
v -84 -48 0
v -86 -48 0
v -86 -46 0
v -84 -46 0
v -162 -48 0
v -164 -48 0
v -164 -46 0
v -162 -46 0
v -164 -48 0
v -166 -48 0
v -166 -46 0
v -164 -46 0
v -166 -48 0
v -168 -48 0
v -168 -46 0
v -166 -46 0
v -172 -48 0
v -174 -48 0
v -174 -46 0
v -172 -46 0
v -106 -50 0
v -108 -50 0
v -108 -48 0
v -106 -48 0
v -108 -50 0
v -110 -50 0
v -110 -48 0
v -108 -48 0
v -170 -50 0
v -172 -50 0
v -172 -48 0
v -170 -48 0
v -24 -52 0
v -26 -52 0
v -26 -50 0
v -24 -50 0
v -26 -52 0
v -28 -52 0
v -28 -50 0
v -26 -50 0
v -104 -52 0
v -106 -52 0
v -106 -50 0
v -104 -50 0
v -34 -54 0
v -36 -54 0
v -36 -52 0
v -34 -52 0
v -36 -54 0
v -38 -54 0
v -38 -52 0
v -36 -52 0
v -10 -56 0
v -12 -56 0
v -12 -54 0
v -10 -54 0
v -12 -56 0
v -14 -56 0
v -14 -54 0
v -12 -54 0
v -82 -58 0
v -84 -58 0
v -84 -56 0
v -82 -56 0
v -84 -58 0
v -86 -58 0
v -86 -56 0
v -84 -56 0
v -14 -60 0
v -16 -60 0
v -16 -58 0
v -14 -58 0
v -16 -60 0
v -18 -60 0
v -18 -58 0
v -16 -58 0
v -166 -60 0
v -168 -60 0
v -168 -58 0
v -166 -58 0
v -168 -60 0
v -170 -60 0
v -170 -58 0
v -168 -58 0
v -62 -62 0
v -64 -62 0
v -64 -60 0
v -62 -60 0
v -64 -62 0
v -66 -62 0
v -66 -60 0
v -64 -60 0
v -66 -62 0
v -68 -62 0
v -68 -60 0
v -66 -60 0
v -68 -62 0
v -70 -62 0
v -70 -60 0
v -68 -60 0
v -76 -62 0
v -78 -62 0
v -78 -60 0
v -76 -60 0
v -78 -62 0
v -80 -62 0
v -80 -60 0
v -78 -60 0
v -158 -62 0
v -160 -62 0
v -160 -60 0
v -158 -60 0
v -160 -62 0
v -162 -62 0
v -162 -60 0
v -160 -60 0
v -164 -62 0
v -166 -62 0
v -166 -60 0
v -164 -60 0
v -170 -62 0
v -172 -62 0
v -172 -60 0
v -170 -60 0
v -70 -64 0
v -72 -64 0
v -72 -62 0
v -70 -62 0
v -162 -64 0
v -164 -64 0
v -164 -62 0
v -162 -62 0
v -164 -66 0
v -166 -66 0
v -166 -64 0
v -164 -64 0
v -54 -68 0
v -56 -68 0
v -56 -66 0
v -54 -66 0
v -56 -68 0
v -58 -68 0
v -58 -66 0
v -56 -66 0
v -124 -68 0
v -126 -68 0
v -126 -66 0
v -124 -66 0
v -126 -68 0
v -128 -68 0
v -128 -66 0
v -126 -66 0
v -128 -68 0
v -130 -68 0
v -130 -66 0
v -128 -66 0
v -130 -70 0
v -132 -70 0
v -132 -68 0
v -130 -68 0
v -32 -72 0
v -34 -72 0
v -34 -70 0
v -32 -70 0
v -34 -72 0
v -36 -72 0
v -36 -70 0
v -34 -70 0
v -102 -72 0
v -104 -72 0
v -104 -70 0
v -102 -70 0
v -104 -72 0
v -106 -72 0
v -106 -70 0
v -104 -70 0
v -106 -74 0
v -108 -74 0
v -108 -72 0
v -106 -72 0
v -126 -74 0
v -128 -74 0
v -128 -72 0
v -126 -72 0
v -188 -74 0
v -190 -74 0
v -190 -72 0
v -188 -72 0
v -190 -74 0
v -192 -74 0
v -192 -72 0
v -190 -72 0
v -30 -76 0
v -32 -76 0
v -32 -74 0
v -30 -74 0
v -32 -76 0
v -34 -76 0
v -34 -74 0
v -32 -74 0
v -130 -78 0
v -132 -78 0
v -132 -76 0
v -130 -76 0
v -132 -80 0
v -134 -80 0
v -134 -78 0
v -132 -78 0
v -154 -80 0
v -156 -80 0
v -156 -78 0
v -154 -78 0
v -156 -80 0
v -158 -80 0
v -158 -78 0
v -156 -78 0
v -128 -82 0
v -130 -82 0
v -130 -80 0
v -128 -80 0
v -158 -82 0
v -160 -82 0
v -160 -80 0
v -158 -80 0
v -190 -82 0
v -192 -82 0
v -192 -80 0
v -190 -80 0
v -192 -82 0
v -194 -82 0
v -194 -80 0
v -192 -80 0
v -44 -84 0
v -46 -84 0
v -46 -82 0
v -44 -82 0
v -46 -84 0
v -48 -84 0
v -48 -82 0
v -46 -82 0
v -48 -84 0
v -50 -84 0
v -50 -82 0
v -48 -82 0
v -50 -84 0
v -52 -84 0
v -52 -82 0
v -50 -82 0
v -52 -84 0
v -54 -84 0
v -54 -82 0
v -52 -82 0
v -132 -84 0
v -134 -84 0
v -134 -82 0
v -132 -82 0
v -134 -84 0
v -136 -84 0
v -136 -82 0
v -134 -82 0
v -154 -84 0
v -156 -84 0
v -156 -82 0
v -154 -82 0
v -194 -84 0
v -196 -84 0
v -196 -82 0
v -194 -82 0
v -40 -86 0
v -42 -86 0
v -42 -84 0
v -40 -84 0
v -42 -86 0
v -44 -86 0
v -44 -84 0
v -42 -84 0
v -72 -86 0
v -74 -86 0
v -74 -84 0
v -72 -84 0
v -74 -86 0
v -76 -86 0
v -76 -84 0
v -74 -84 0
v -76 -86 0
v -78 -86 0
v -78 -84 0
v -76 -84 0
v -78 -86 0
v -80 -86 0
v -80 -84 0
v -78 -84 0
v -126 -86 0
v -128 -86 0
v -128 -84 0
v -126 -84 0
v -128 -86 0
v -130 -86 0
v -130 -84 0
v -128 -84 0
v -172 -86 0
v -174 -86 0
v -174 -84 0
v -172 -84 0
v -174 -86 0
v -176 -86 0
v -176 -84 0
v -174 -84 0
v -176 -86 0
v -178 -86 0
v -178 -84 0
v -176 -84 0
v -178 -86 0
v -180 -86 0
v -180 -84 0
v -178 -84 0
v -38 -88 0
v -40 -88 0
v -40 -86 0
v -38 -86 0
v -80 -88 0
v -82 -88 0
v -82 -86 0
v -80 -86 0
v -170 -90 0
v -172 -90 0
v -172 -88 0
v -170 -88 0
v -102 -92 0
v -104 -92 0
v -104 -90 0
v -102 -90 0
v -104 -92 0
v -106 -92 0
v -106 -90 0
v -104 -90 0
v -168 -92 0
v -170 -92 0
v -170 -90 0
v -168 -90 0
v -90 -94 0
v -92 -94 0
v -92 -92 0
v -90 -92 0
v -92 -94 0
v -94 -94 0
v -94 -92 0
v -92 -92 0
v -106 -94 0
v -108 -94 0
v -108 -92 0
v -106 -92 0
v -112 -94 0
v -114 -94 0
v -114 -92 0
v -112 -92 0
v -114 -94 0
v -116 -94 0
v -116 -92 0
v -114 -92 0
v -88 -96 0
v -90 -96 0
v -90 -94 0
v -88 -94 0
v -94 -96 0
v -96 -96 0
v -96 -94 0
v -94 -94 0
v -108 -96 0
v -110 -96 0
v -110 -94 0
v -108 -94 0
v -110 -96 0
v -112 -96 0
v -112 -94 0
v -110 -94 0
v -116 -96 0
v -118 -96 0
v -118 -94 0
v -116 -94 0
v -86 -98 0
v -88 -98 0
v -88 -96 0
v -86 -96 0
v -118 -98 0
v -120 -98 0
v -120 -96 0
v -118 -96 0
v -84 -100 0
v -86 -100 0
v -86 -98 0
v -84 -98 0

# Texture cooridinates (Count = 10)
vt 0.125 0.5277778
vt 0.15 0.5277778
vt 0.15 0.5555556
vt 0.125 0.5555556
vt 0.175 0.5277778
vt 0.175 0.5555556
vt 0.125 0.4722222
vt 0.15 0.4722222
vt 0.15 0.5
vt 0.125 0.5

# Normal
vn 0 0 -1

# Mesh description
g Swamp_mesh_0006

# Faces
f 1/1/1 2/2/1 3/3/1 4/4/1
f 5/1/1 6/2/1 7/3/1 8/4/1
f 9/2/1 10/5/1 11/6/1 12/3/1
f 13/2/1 14/5/1 15/6/1 16/3/1
f 17/1/1 18/2/1 19/3/1 20/4/1
f 21/2/1 22/5/1 23/6/1 24/3/1
f 25/1/1 26/2/1 27/3/1 28/4/1
f 29/2/1 30/5/1 31/6/1 32/3/1
f 33/1/1 34/2/1 35/3/1 36/4/1
f 37/1/1 38/2/1 39/3/1 40/4/1
f 41/1/1 42/2/1 43/3/1 44/4/1
f 45/7/1 46/8/1 47/9/1 48/10/1
f 49/2/1 50/5/1 51/6/1 52/3/1
f 53/1/1 54/2/1 55/3/1 56/4/1
f 57/2/1 58/5/1 59/6/1 60/3/1
f 61/1/1 62/2/1 63/3/1 64/4/1
f 65/2/1 66/5/1 67/6/1 68/3/1
f 69/1/1 70/2/1 71/3/1 72/4/1
f 73/2/1 74/5/1 75/6/1 76/3/1
f 77/1/1 78/2/1 79/3/1 80/4/1
f 81/2/1 82/5/1 83/6/1 84/3/1
f 85/1/1 86/2/1 87/3/1 88/4/1
f 89/7/1 90/8/1 91/9/1 92/10/1
f 93/1/1 94/2/1 95/3/1 96/4/1
f 97/2/1 98/5/1 99/6/1 100/3/1
f 101/1/1 102/2/1 103/3/1 104/4/1
f 105/1/1 106/2/1 107/3/1 108/4/1
f 109/7/1 110/8/1 111/9/1 112/10/1
f 113/2/1 114/5/1 115/6/1 116/3/1
f 117/1/1 118/2/1 119/3/1 120/4/1
f 121/2/1 122/5/1 123/6/1 124/3/1
f 125/7/1 126/8/1 127/9/1 128/10/1
f 129/2/1 130/5/1 131/6/1 132/3/1
f 133/2/1 134/5/1 135/6/1 136/3/1
f 137/1/1 138/2/1 139/3/1 140/4/1
f 141/1/1 142/2/1 143/3/1 144/4/1
f 145/1/1 146/2/1 147/3/1 148/4/1
f 149/7/1 150/8/1 151/9/1 152/10/1
f 153/2/1 154/5/1 155/6/1 156/3/1
f 157/1/1 158/2/1 159/3/1 160/4/1
f 161/2/1 162/5/1 163/6/1 164/3/1
f 165/1/1 166/2/1 167/3/1 168/4/1
f 169/1/1 170/2/1 171/3/1 172/4/1
f 173/2/1 174/5/1 175/6/1 176/3/1
f 177/1/1 178/2/1 179/3/1 180/4/1
f 181/7/1 182/8/1 183/9/1 184/10/1
f 185/7/1 186/8/1 187/9/1 188/10/1
f 189/2/1 190/5/1 191/6/1 192/3/1
f 193/1/1 194/2/1 195/3/1 196/4/1
f 197/1/1 198/2/1 199/3/1 200/4/1
f 201/2/1 202/5/1 203/6/1 204/3/1
f 205/1/1 206/2/1 207/3/1 208/4/1
f 209/7/1 210/8/1 211/9/1 212/10/1
f 213/1/1 214/2/1 215/3/1 216/4/1
f 217/2/1 218/5/1 219/6/1 220/3/1
f 221/1/1 222/2/1 223/3/1 224/4/1
f 225/2/1 226/5/1 227/6/1 228/3/1
f 229/1/1 230/2/1 231/3/1 232/4/1
f 233/2/1 234/5/1 235/6/1 236/3/1
f 237/1/1 238/2/1 239/3/1 240/4/1
f 241/7/1 242/8/1 243/9/1 244/10/1
f 245/7/1 246/8/1 247/9/1 248/10/1
f 249/2/1 250/5/1 251/6/1 252/3/1
f 253/1/1 254/2/1 255/3/1 256/4/1
f 257/2/1 258/5/1 259/6/1 260/3/1
f 261/1/1 262/2/1 263/3/1 264/4/1
f 265/2/1 266/5/1 267/6/1 268/3/1
f 269/1/1 270/2/1 271/3/1 272/4/1
f 273/2/1 274/5/1 275/6/1 276/3/1
f 277/1/1 278/2/1 279/3/1 280/4/1
f 281/2/1 282/5/1 283/6/1 284/3/1
f 285/1/1 286/2/1 287/3/1 288/4/1
f 289/2/1 290/5/1 291/6/1 292/3/1
f 293/1/1 294/2/1 295/3/1 296/4/1
f 297/1/1 298/2/1 299/3/1 300/4/1
f 301/1/1 302/2/1 303/3/1 304/4/1
f 305/2/1 306/5/1 307/6/1 308/3/1
f 309/1/1 310/2/1 311/3/1 312/4/1
f 313/2/1 314/5/1 315/6/1 316/3/1
f 317/1/1 318/2/1 319/3/1 320/4/1
f 321/1/1 322/2/1 323/3/1 324/4/1
f 325/7/1 326/8/1 327/9/1 328/10/1
f 329/2/1 330/5/1 331/6/1 332/3/1
f 333/2/1 334/5/1 335/6/1 336/3/1
f 337/1/1 338/2/1 339/3/1 340/4/1
f 341/2/1 342/5/1 343/6/1 344/3/1
f 345/1/1 346/2/1 347/3/1 348/4/1
f 349/2/1 350/5/1 351/6/1 352/3/1
f 353/1/1 354/2/1 355/3/1 356/4/1
f 357/7/1 358/8/1 359/9/1 360/10/1
f 361/7/1 362/8/1 363/9/1 364/10/1
f 365/2/1 366/5/1 367/6/1 368/3/1
f 369/1/1 370/2/1 371/3/1 372/4/1
f 373/2/1 374/5/1 375/6/1 376/3/1
f 377/2/1 378/5/1 379/6/1 380/3/1
f 381/7/1 382/8/1 383/9/1 384/10/1
f 385/2/1 386/5/1 387/6/1 388/3/1
f 389/2/1 390/5/1 391/6/1 392/3/1
f 393/1/1 394/2/1 395/3/1 396/4/1
f 397/2/1 398/5/1 399/6/1 400/3/1
f 401/1/1 402/2/1 403/3/1 404/4/1
f 405/2/1 406/5/1 407/6/1 408/3/1
f 409/1/1 410/2/1 411/3/1 412/4/1
f 413/7/1 414/8/1 415/9/1 416/10/1
f 417/7/1 418/8/1 419/9/1 420/10/1
f 421/2/1 422/5/1 423/6/1 424/3/1
f 425/1/1 426/2/1 427/3/1 428/4/1
f 429/7/1 430/8/1 431/9/1 432/10/1
f 433/7/1 434/8/1 435/9/1 436/10/1
f 437/2/1 438/5/1 439/6/1 440/3/1
f 441/1/1 442/2/1 443/3/1 444/4/1
f 445/2/1 446/5/1 447/6/1 448/3/1
f 449/7/1 450/8/1 451/9/1 452/10/1
f 453/7/1 454/8/1 455/9/1 456/10/1
f 457/2/1 458/5/1 459/6/1 460/3/1
f 461/1/1 462/2/1 463/3/1 464/4/1
f 465/1/1 466/2/1 467/3/1 468/4/1
f 469/2/1 470/5/1 471/6/1 472/3/1
f 473/1/1 474/2/1 475/3/1 476/4/1
f 477/1/1 478/2/1 479/3/1 480/4/1
f 481/2/1 482/5/1 483/6/1 484/3/1
f 485/1/1 486/2/1 487/3/1 488/4/1
f 489/1/1 490/2/1 491/3/1 492/4/1
f 493/2/1 494/5/1 495/6/1 496/3/1
f 497/1/1 498/2/1 499/3/1 500/4/1
f 501/2/1 502/5/1 503/6/1 504/3/1
f 505/1/1 506/2/1 507/3/1 508/4/1
f 509/2/1 510/5/1 511/6/1 512/3/1
f 513/1/1 514/2/1 515/3/1 516/4/1
f 517/2/1 518/5/1 519/6/1 520/3/1
f 521/1/1 522/2/1 523/3/1 524/4/1
f 525/2/1 526/5/1 527/6/1 528/3/1
f 529/1/1 530/2/1 531/3/1 532/4/1
f 533/2/1 534/5/1 535/6/1 536/3/1
f 537/1/1 538/2/1 539/3/1 540/4/1
f 541/2/1 542/5/1 543/6/1 544/3/1
f 545/1/1 546/2/1 547/3/1 548/4/1
f 549/2/1 550/5/1 551/6/1 552/3/1
f 553/1/1 554/2/1 555/3/1 556/4/1
f 557/2/1 558/5/1 559/6/1 560/3/1
f 561/1/1 562/2/1 563/3/1 564/4/1
f 565/2/1 566/5/1 567/6/1 568/3/1
f 569/2/1 570/5/1 571/6/1 572/3/1
f 573/2/1 574/5/1 575/6/1 576/3/1
f 577/2/1 578/5/1 579/6/1 580/3/1
f 581/1/1 582/2/1 583/3/1 584/4/1
f 585/2/1 586/5/1 587/6/1 588/3/1
f 589/1/1 590/2/1 591/3/1 592/4/1
f 593/7/1 594/8/1 595/9/1 596/10/1
f 597/2/1 598/5/1 599/6/1 600/3/1
f 601/2/1 602/5/1 603/6/1 604/3/1
f 605/1/1 606/2/1 607/3/1 608/4/1
f 609/2/1 610/5/1 611/6/1 612/3/1
f 613/1/1 614/2/1 615/3/1 616/4/1
f 617/2/1 618/5/1 619/6/1 620/3/1
f 621/2/1 622/5/1 623/6/1 624/3/1
f 625/1/1 626/2/1 627/3/1 628/4/1
f 629/1/1 630/2/1 631/3/1 632/4/1
f 633/2/1 634/5/1 635/6/1 636/3/1
f 637/1/1 638/2/1 639/3/1 640/4/1
f 641/2/1 642/5/1 643/6/1 644/3/1
f 645/2/1 646/5/1 647/6/1 648/3/1
f 649/2/1 650/5/1 651/6/1 652/3/1
f 653/1/1 654/2/1 655/3/1 656/4/1
f 657/2/1 658/5/1 659/6/1 660/3/1
f 661/1/1 662/2/1 663/3/1 664/4/1
f 665/2/1 666/5/1 667/6/1 668/3/1
f 669/1/1 670/2/1 671/3/1 672/4/1
f 673/2/1 674/5/1 675/6/1 676/3/1
f 677/1/1 678/2/1 679/3/1 680/4/1
f 681/7/1 682/8/1 683/9/1 684/10/1
f 685/2/1 686/5/1 687/6/1 688/3/1
f 689/1/1 690/2/1 691/3/1 692/4/1
f 693/2/1 694/5/1 695/6/1 696/3/1
f 697/7/1 698/8/1 699/9/1 700/10/1
f 701/2/1 702/5/1 703/6/1 704/3/1
f 705/1/1 706/2/1 707/3/1 708/4/1
f 709/2/1 710/5/1 711/6/1 712/3/1
f 713/1/1 714/2/1 715/3/1 716/4/1
f 717/2/1 718/5/1 719/6/1 720/3/1
f 721/1/1 722/2/1 723/3/1 724/4/1
f 725/2/1 726/5/1 727/6/1 728/3/1
f 729/1/1 730/2/1 731/3/1 732/4/1
f 733/2/1 734/5/1 735/6/1 736/3/1
f 737/1/1 738/2/1 739/3/1 740/4/1
f 741/7/1 742/8/1 743/9/1 744/10/1
f 745/1/1 746/2/1 747/3/1 748/4/1
f 749/7/1 750/8/1 751/9/1 752/10/1
f 753/7/1 754/8/1 755/9/1 756/10/1
f 757/2/1 758/5/1 759/6/1 760/3/1
f 761/1/1 762/2/1 763/3/1 764/4/1
f 765/2/1 766/5/1 767/6/1 768/3/1
f 769/1/1 770/2/1 771/3/1 772/4/1
f 773/1/1 774/2/1 775/3/1 776/4/1
f 777/2/1 778/5/1 779/6/1 780/3/1
f 781/1/1 782/2/1 783/3/1 784/4/1
f 785/1/1 786/2/1 787/3/1 788/4/1
f 789/2/1 790/5/1 791/6/1 792/3/1
f 793/2/1 794/5/1 795/6/1 796/3/1
f 797/1/1 798/2/1 799/3/1 800/4/1
f 801/2/1 802/5/1 803/6/1 804/3/1
f 805/1/1 806/2/1 807/3/1 808/4/1
f 809/2/1 810/5/1 811/6/1 812/3/1
f 813/1/1 814/2/1 815/3/1 816/4/1
f 817/2/1 818/5/1 819/6/1 820/3/1
f 821/2/1 822/5/1 823/6/1 824/3/1
f 825/1/1 826/2/1 827/3/1 828/4/1
f 829/2/1 830/5/1 831/6/1 832/3/1
f 833/1/1 834/2/1 835/3/1 836/4/1

