# Tiled2Unity generated file. Do not modify by hand.
# Wavefront file for 'Thicket_mesh_0004.obj'

# Vertices (Count = 8)
v -118 -146 0
v -120 -146 0
v -120 -144 0
v -118 -144 0
v -120 -146 0
v -122 -146 0
v -122 -144 0
v -120 -144 0

# Texture cooridinates (Count = 6)
vt 0.225 0.6666666
vt 0.25 0.6666666
vt 0.25 0.6944444
vt 0.225 0.6944444
vt 0.275 0.6666666
vt 0.275 0.6944444

# Normal
vn 0 0 -1

# Mesh description
g Thicket_mesh_0004

# Faces
f 1/1/1 2/2/1 3/3/1 4/4/1
f 5/2/1 6/5/1 7/6/1 8/3/1

