# Tiled2Unity generated file. Do not modify by hand.
# Wavefront file for 'Thicket_mesh_0007.obj'

# Vertices (Count = 1028)
v -198 -118 0
v -200 -118 0
v -200 -116 0
v -198 -116 0
v -168 -120 0
v -170 -120 0
v -170 -118 0
v -168 -118 0
v -170 -120 0
v -172 -120 0
v -172 -118 0
v -170 -118 0
v -194 -120 0
v -196 -120 0
v -196 -118 0
v -194 -118 0
v -196 -120 0
v -198 -120 0
v -198 -118 0
v -196 -118 0
v -198 -120 0
v -200 -120 0
v -200 -118 0
v -198 -118 0
v -146 -122 0
v -148 -122 0
v -148 -120 0
v -146 -120 0
v -148 -122 0
v -150 -122 0
v -150 -120 0
v -148 -120 0
v -156 -122 0
v -158 -122 0
v -158 -120 0
v -156 -120 0
v -158 -122 0
v -160 -122 0
v -160 -120 0
v -158 -120 0
v -160 -122 0
v -162 -122 0
v -162 -120 0
v -160 -120 0
v -166 -122 0
v -168 -122 0
v -168 -120 0
v -166 -120 0
v -168 -122 0
v -170 -122 0
v -170 -120 0
v -168 -120 0
v -170 -122 0
v -172 -122 0
v -172 -120 0
v -170 -120 0
v -172 -122 0
v -174 -122 0
v -174 -120 0
v -172 -120 0
v -190 -122 0
v -192 -122 0
v -192 -120 0
v -190 -120 0
v -192 -122 0
v -194 -122 0
v -194 -120 0
v -192 -120 0
v -194 -122 0
v -196 -122 0
v -196 -120 0
v -194 -120 0
v -196 -122 0
v -198 -122 0
v -198 -120 0
v -196 -120 0
v -198 -122 0
v -200 -122 0
v -200 -120 0
v -198 -120 0
v -142 -124 0
v -144 -124 0
v -144 -122 0
v -142 -122 0
v -144 -124 0
v -146 -124 0
v -146 -122 0
v -144 -122 0
v -146 -124 0
v -148 -124 0
v -148 -122 0
v -146 -122 0
v -148 -124 0
v -150 -124 0
v -150 -122 0
v -148 -122 0
v -150 -124 0
v -152 -124 0
v -152 -122 0
v -150 -122 0
v -152 -124 0
v -154 -124 0
v -154 -122 0
v -152 -122 0
v -154 -124 0
v -156 -124 0
v -156 -122 0
v -154 -122 0
v -156 -124 0
v -158 -124 0
v -158 -122 0
v -156 -122 0
v -158 -124 0
v -160 -124 0
v -160 -122 0
v -158 -122 0
v -160 -124 0
v -162 -124 0
v -162 -122 0
v -160 -122 0
v -162 -124 0
v -164 -124 0
v -164 -122 0
v -162 -122 0
v -164 -124 0
v -166 -124 0
v -166 -122 0
v -164 -122 0
v -166 -124 0
v -168 -124 0
v -168 -122 0
v -166 -122 0
v -168 -124 0
v -170 -124 0
v -170 -122 0
v -168 -122 0
v -170 -124 0
v -172 -124 0
v -172 -122 0
v -170 -122 0
v -172 -124 0
v -174 -124 0
v -174 -122 0
v -172 -122 0
v -174 -124 0
v -176 -124 0
v -176 -122 0
v -174 -122 0
v -188 -124 0
v -190 -124 0
v -190 -122 0
v -188 -122 0
v -190 -124 0
v -192 -124 0
v -192 -122 0
v -190 -122 0
v -192 -124 0
v -194 -124 0
v -194 -122 0
v -192 -122 0
v -194 -124 0
v -196 -124 0
v -196 -122 0
v -194 -122 0
v -128 -126 0
v -130 -126 0
v -130 -124 0
v -128 -124 0
v -130 -126 0
v -132 -126 0
v -132 -124 0
v -130 -124 0
v -132 -126 0
v -134 -126 0
v -134 -124 0
v -132 -124 0
v -142 -126 0
v -144 -126 0
v -144 -124 0
v -142 -124 0
v -144 -126 0
v -146 -126 0
v -146 -124 0
v -144 -124 0
v -146 -126 0
v -148 -126 0
v -148 -124 0
v -146 -124 0
v -148 -126 0
v -150 -126 0
v -150 -124 0
v -148 -124 0
v -150 -126 0
v -152 -126 0
v -152 -124 0
v -150 -124 0
v -152 -126 0
v -154 -126 0
v -154 -124 0
v -152 -124 0
v -154 -126 0
v -156 -126 0
v -156 -124 0
v -154 -124 0
v -156 -126 0
v -158 -126 0
v -158 -124 0
v -156 -124 0
v -160 -126 0
v -162 -126 0
v -162 -124 0
v -160 -124 0
v -162 -126 0
v -164 -126 0
v -164 -124 0
v -162 -124 0
v -164 -126 0
v -166 -126 0
v -166 -124 0
v -164 -124 0
v -166 -126 0
v -168 -126 0
v -168 -124 0
v -166 -124 0
v -172 -126 0
v -174 -126 0
v -174 -124 0
v -172 -124 0
v -174 -126 0
v -176 -126 0
v -176 -124 0
v -174 -124 0
v -176 -126 0
v -178 -126 0
v -178 -124 0
v -176 -124 0
v -178 -126 0
v -180 -126 0
v -180 -124 0
v -178 -124 0
v -180 -126 0
v -182 -126 0
v -182 -124 0
v -180 -124 0
v -182 -126 0
v -184 -126 0
v -184 -124 0
v -182 -124 0
v -184 -126 0
v -186 -126 0
v -186 -124 0
v -184 -124 0
v -186 -126 0
v -188 -126 0
v -188 -124 0
v -186 -124 0
v -188 -126 0
v -190 -126 0
v -190 -124 0
v -188 -124 0
v -190 -126 0
v -192 -126 0
v -192 -124 0
v -190 -124 0
v -128 -128 0
v -130 -128 0
v -130 -126 0
v -128 -126 0
v -130 -128 0
v -132 -128 0
v -132 -126 0
v -130 -126 0
v -132 -128 0
v -134 -128 0
v -134 -126 0
v -132 -126 0
v -142 -128 0
v -144 -128 0
v -144 -126 0
v -142 -126 0
v -144 -128 0
v -146 -128 0
v -146 -126 0
v -144 -126 0
v -174 -128 0
v -176 -128 0
v -176 -126 0
v -174 -126 0
v -176 -128 0
v -178 -128 0
v -178 -126 0
v -176 -126 0
v -178 -128 0
v -180 -128 0
v -180 -126 0
v -178 -126 0
v -180 -128 0
v -182 -128 0
v -182 -126 0
v -180 -126 0
v -182 -128 0
v -184 -128 0
v -184 -126 0
v -182 -126 0
v -184 -128 0
v -186 -128 0
v -186 -126 0
v -184 -126 0
v -186 -128 0
v -188 -128 0
v -188 -126 0
v -186 -126 0
v -188 -128 0
v -190 -128 0
v -190 -126 0
v -188 -126 0
v -124 -130 0
v -126 -130 0
v -126 -128 0
v -124 -128 0
v -126 -130 0
v -128 -130 0
v -128 -128 0
v -126 -128 0
v -128 -130 0
v -130 -130 0
v -130 -128 0
v -128 -128 0
v -130 -130 0
v -132 -130 0
v -132 -128 0
v -130 -128 0
v -132 -130 0
v -134 -130 0
v -134 -128 0
v -132 -128 0
v -134 -130 0
v -136 -130 0
v -136 -128 0
v -134 -128 0
v -136 -130 0
v -138 -130 0
v -138 -128 0
v -136 -128 0
v -138 -130 0
v -140 -130 0
v -140 -128 0
v -138 -128 0
v -140 -130 0
v -142 -130 0
v -142 -128 0
v -140 -128 0
v -142 -130 0
v -144 -130 0
v -144 -128 0
v -142 -128 0
v -124 -132 0
v -126 -132 0
v -126 -130 0
v -124 -130 0
v -126 -132 0
v -128 -132 0
v -128 -130 0
v -126 -130 0
v -128 -132 0
v -130 -132 0
v -130 -130 0
v -128 -130 0
v -132 -132 0
v -134 -132 0
v -134 -130 0
v -132 -130 0
v -134 -132 0
v -136 -132 0
v -136 -130 0
v -134 -130 0
v -136 -132 0
v -138 -132 0
v -138 -130 0
v -136 -130 0
v -138 -132 0
v -140 -132 0
v -140 -130 0
v -138 -130 0
v -140 -132 0
v -142 -132 0
v -142 -130 0
v -140 -130 0
v -124 -134 0
v -126 -134 0
v -126 -132 0
v -124 -132 0
v -126 -134 0
v -128 -134 0
v -128 -132 0
v -126 -132 0
v -124 -136 0
v -126 -136 0
v -126 -134 0
v -124 -134 0
v -126 -136 0
v -128 -136 0
v -128 -134 0
v -126 -134 0
v -128 -136 0
v -130 -136 0
v -130 -134 0
v -128 -134 0
v -126 -138 0
v -128 -138 0
v -128 -136 0
v -126 -136 0
v -128 -138 0
v -130 -138 0
v -130 -136 0
v -128 -136 0
v -130 -138 0
v -132 -138 0
v -132 -136 0
v -130 -136 0
v -132 -138 0
v -134 -138 0
v -134 -136 0
v -132 -136 0
v -128 -140 0
v -130 -140 0
v -130 -138 0
v -128 -138 0
v -130 -140 0
v -132 -140 0
v -132 -138 0
v -130 -138 0
v -132 -140 0
v -134 -140 0
v -134 -138 0
v -132 -138 0
v -134 -140 0
v -136 -140 0
v -136 -138 0
v -134 -138 0
v -132 -142 0
v -134 -142 0
v -134 -140 0
v -132 -140 0
v -134 -142 0
v -136 -142 0
v -136 -140 0
v -134 -140 0
v -136 -142 0
v -138 -142 0
v -138 -140 0
v -136 -140 0
v -134 -144 0
v -136 -144 0
v -136 -142 0
v -134 -142 0
v -136 -144 0
v -138 -144 0
v -138 -142 0
v -136 -142 0
v -134 -146 0
v -136 -146 0
v -136 -144 0
v -134 -144 0
v -136 -146 0
v -138 -146 0
v -138 -144 0
v -136 -144 0
v -134 -148 0
v -136 -148 0
v -136 -146 0
v -134 -146 0
v -136 -148 0
v -138 -148 0
v -138 -146 0
v -136 -146 0
v -132 -150 0
v -134 -150 0
v -134 -148 0
v -132 -148 0
v -134 -150 0
v -136 -150 0
v -136 -148 0
v -134 -148 0
v -136 -150 0
v -138 -150 0
v -138 -148 0
v -136 -148 0
v -128 -152 0
v -130 -152 0
v -130 -150 0
v -128 -150 0
v -130 -152 0
v -132 -152 0
v -132 -150 0
v -130 -150 0
v -132 -152 0
v -134 -152 0
v -134 -150 0
v -132 -150 0
v -134 -152 0
v -136 -152 0
v -136 -150 0
v -134 -150 0
v -126 -154 0
v -128 -154 0
v -128 -152 0
v -126 -152 0
v -128 -154 0
v -130 -154 0
v -130 -152 0
v -128 -152 0
v -130 -154 0
v -132 -154 0
v -132 -152 0
v -130 -152 0
v -132 -154 0
v -134 -154 0
v -134 -152 0
v -132 -152 0
v -124 -156 0
v -126 -156 0
v -126 -154 0
v -124 -154 0
v -126 -156 0
v -128 -156 0
v -128 -154 0
v -126 -154 0
v -128 -156 0
v -130 -156 0
v -130 -154 0
v -128 -154 0
v -122 -158 0
v -124 -158 0
v -124 -156 0
v -122 -156 0
v -124 -158 0
v -126 -158 0
v -126 -156 0
v -124 -156 0
v -126 -158 0
v -128 -158 0
v -128 -156 0
v -126 -156 0
v -104 -160 0
v -106 -160 0
v -106 -158 0
v -104 -158 0
v -106 -160 0
v -108 -160 0
v -108 -158 0
v -106 -158 0
v -108 -160 0
v -110 -160 0
v -110 -158 0
v -108 -158 0
v -110 -160 0
v -112 -160 0
v -112 -158 0
v -110 -158 0
v -120 -160 0
v -122 -160 0
v -122 -158 0
v -120 -158 0
v -122 -160 0
v -124 -160 0
v -124 -158 0
v -122 -158 0
v -124 -160 0
v -126 -160 0
v -126 -158 0
v -124 -158 0
v -104 -162 0
v -106 -162 0
v -106 -160 0
v -104 -160 0
v -106 -162 0
v -108 -162 0
v -108 -160 0
v -106 -160 0
v -108 -162 0
v -110 -162 0
v -110 -160 0
v -108 -160 0
v -110 -162 0
v -112 -162 0
v -112 -160 0
v -110 -160 0
v -112 -162 0
v -114 -162 0
v -114 -160 0
v -112 -160 0
v -118 -162 0
v -120 -162 0
v -120 -160 0
v -118 -160 0
v -120 -162 0
v -122 -162 0
v -122 -160 0
v -120 -160 0
v -122 -162 0
v -124 -162 0
v -124 -160 0
v -122 -160 0
v -104 -164 0
v -106 -164 0
v -106 -162 0
v -104 -162 0
v -106 -164 0
v -108 -164 0
v -108 -162 0
v -106 -162 0
v -108 -164 0
v -110 -164 0
v -110 -162 0
v -108 -162 0
v -110 -164 0
v -112 -164 0
v -112 -162 0
v -110 -162 0
v -112 -164 0
v -114 -164 0
v -114 -162 0
v -112 -162 0
v -114 -164 0
v -116 -164 0
v -116 -162 0
v -114 -162 0
v -116 -164 0
v -118 -164 0
v -118 -162 0
v -116 -162 0
v -118 -164 0
v -120 -164 0
v -120 -162 0
v -118 -162 0
v -120 -164 0
v -122 -164 0
v -122 -162 0
v -120 -162 0
v -106 -166 0
v -108 -166 0
v -108 -164 0
v -106 -164 0
v -108 -166 0
v -110 -166 0
v -110 -164 0
v -108 -164 0
v -110 -166 0
v -112 -166 0
v -112 -164 0
v -110 -164 0
v -112 -166 0
v -114 -166 0
v -114 -164 0
v -112 -164 0
v -114 -166 0
v -116 -166 0
v -116 -164 0
v -114 -164 0
v -116 -166 0
v -118 -166 0
v -118 -164 0
v -116 -164 0
v -118 -166 0
v -120 -166 0
v -120 -164 0
v -118 -164 0
v -108 -168 0
v -110 -168 0
v -110 -166 0
v -108 -166 0
v -110 -168 0
v -112 -168 0
v -112 -166 0
v -110 -166 0
v -112 -168 0
v -114 -168 0
v -114 -166 0
v -112 -166 0
v -110 -170 0
v -112 -170 0
v -112 -168 0
v -110 -168 0
v -112 -170 0
v -114 -170 0
v -114 -168 0
v -112 -168 0
v -110 -172 0
v -112 -172 0
v -112 -170 0
v -110 -170 0
v -112 -172 0
v -114 -172 0
v -114 -170 0
v -112 -170 0
v -114 -172 0
v -116 -172 0
v -116 -170 0
v -114 -170 0
v -112 -174 0
v -114 -174 0
v -114 -172 0
v -112 -172 0
v -114 -174 0
v -116 -174 0
v -116 -172 0
v -114 -172 0
v -112 -176 0
v -114 -176 0
v -114 -174 0
v -112 -174 0
v -114 -176 0
v -116 -176 0
v -116 -174 0
v -114 -174 0
v -112 -178 0
v -114 -178 0
v -114 -176 0
v -112 -176 0
v -114 -178 0
v -116 -178 0
v -116 -176 0
v -114 -176 0
v -112 -180 0
v -114 -180 0
v -114 -178 0
v -112 -178 0
v -114 -180 0
v -116 -180 0
v -116 -178 0
v -114 -178 0
v -102 -182 0
v -104 -182 0
v -104 -180 0
v -102 -180 0
v -104 -182 0
v -106 -182 0
v -106 -180 0
v -104 -180 0
v -106 -182 0
v -108 -182 0
v -108 -180 0
v -106 -180 0
v -110 -182 0
v -112 -182 0
v -112 -180 0
v -110 -180 0
v -112 -182 0
v -114 -182 0
v -114 -180 0
v -112 -180 0
v -114 -182 0
v -116 -182 0
v -116 -180 0
v -114 -180 0
v -102 -184 0
v -104 -184 0
v -104 -182 0
v -102 -182 0
v -104 -184 0
v -106 -184 0
v -106 -182 0
v -104 -182 0
v -106 -184 0
v -108 -184 0
v -108 -182 0
v -106 -182 0
v -108 -184 0
v -110 -184 0
v -110 -182 0
v -108 -182 0
v -110 -184 0
v -112 -184 0
v -112 -182 0
v -110 -182 0
v -112 -184 0
v -114 -184 0
v -114 -182 0
v -112 -182 0
v -104 -186 0
v -106 -186 0
v -106 -184 0
v -104 -184 0
v -106 -186 0
v -108 -186 0
v -108 -184 0
v -106 -184 0
v -108 -186 0
v -110 -186 0
v -110 -184 0
v -108 -184 0
v -110 -186 0
v -112 -186 0
v -112 -184 0
v -110 -184 0
v -104 -188 0
v -106 -188 0
v -106 -186 0
v -104 -186 0
v -106 -188 0
v -108 -188 0
v -108 -186 0
v -106 -186 0
v -106 -190 0
v -108 -190 0
v -108 -188 0
v -106 -188 0
v -108 -190 0
v -110 -190 0
v -110 -188 0
v -108 -188 0
v -106 -192 0
v -108 -192 0
v -108 -190 0
v -106 -190 0
v -108 -192 0
v -110 -192 0
v -110 -190 0
v -108 -190 0
v -106 -194 0
v -108 -194 0
v -108 -192 0
v -106 -192 0
v -108 -194 0
v -110 -194 0
v -110 -192 0
v -108 -192 0
v -106 -196 0
v -108 -196 0
v -108 -194 0
v -106 -194 0
v -108 -196 0
v -110 -196 0
v -110 -194 0
v -108 -194 0
v -110 -196 0
v -112 -196 0
v -112 -194 0
v -110 -194 0
v -108 -198 0
v -110 -198 0
v -110 -196 0
v -108 -196 0
v -110 -198 0
v -112 -198 0
v -112 -196 0
v -110 -196 0
v 0 -200 0
v -2 -200 0
v -2 -198 0
v 0 -198 0
v -2 -200 0
v -4 -200 0
v -4 -198 0
v -2 -198 0
v -4 -200 0
v -6 -200 0
v -6 -198 0
v -4 -198 0
v -6 -200 0
v -8 -200 0
v -8 -198 0
v -6 -198 0
v -8 -200 0
v -10 -200 0
v -10 -198 0
v -8 -198 0
v -10 -200 0
v -12 -200 0
v -12 -198 0
v -10 -198 0
v -12 -200 0
v -14 -200 0
v -14 -198 0
v -12 -198 0
v -14 -200 0
v -16 -200 0
v -16 -198 0
v -14 -198 0
v -16 -200 0
v -18 -200 0
v -18 -198 0
v -16 -198 0
v -18 -200 0
v -20 -200 0
v -20 -198 0
v -18 -198 0
v -20 -200 0
v -22 -200 0
v -22 -198 0
v -20 -198 0
v -22 -200 0
v -24 -200 0
v -24 -198 0
v -22 -198 0
v -24 -200 0
v -26 -200 0
v -26 -198 0
v -24 -198 0
v -26 -200 0
v -28 -200 0
v -28 -198 0
v -26 -198 0
v -28 -200 0
v -30 -200 0
v -30 -198 0
v -28 -198 0
v -30 -200 0
v -32 -200 0
v -32 -198 0
v -30 -198 0
v -32 -200 0
v -34 -200 0
v -34 -198 0
v -32 -198 0
v -34 -200 0
v -36 -200 0
v -36 -198 0
v -34 -198 0
v -36 -200 0
v -38 -200 0
v -38 -198 0
v -36 -198 0
v -38 -200 0
v -40 -200 0
v -40 -198 0
v -38 -198 0
v -40 -200 0
v -42 -200 0
v -42 -198 0
v -40 -198 0
v -42 -200 0
v -44 -200 0
v -44 -198 0
v -42 -198 0
v -44 -200 0
v -46 -200 0
v -46 -198 0
v -44 -198 0
v -46 -200 0
v -48 -200 0
v -48 -198 0
v -46 -198 0
v -48 -200 0
v -50 -200 0
v -50 -198 0
v -48 -198 0
v -50 -200 0
v -52 -200 0
v -52 -198 0
v -50 -198 0
v -52 -200 0
v -54 -200 0
v -54 -198 0
v -52 -198 0
v -54 -200 0
v -56 -200 0
v -56 -198 0
v -54 -198 0
v -56 -200 0
v -58 -200 0
v -58 -198 0
v -56 -198 0
v -58 -200 0
v -60 -200 0
v -60 -198 0
v -58 -198 0
v -60 -200 0
v -62 -200 0
v -62 -198 0
v -60 -198 0
v -62 -200 0
v -64 -200 0
v -64 -198 0
v -62 -198 0
v -64 -200 0
v -66 -200 0
v -66 -198 0
v -64 -198 0
v -66 -200 0
v -68 -200 0
v -68 -198 0
v -66 -198 0
v -68 -200 0
v -70 -200 0
v -70 -198 0
v -68 -198 0
v -70 -200 0
v -72 -200 0
v -72 -198 0
v -70 -198 0
v -72 -200 0
v -74 -200 0
v -74 -198 0
v -72 -198 0
v -74 -200 0
v -76 -200 0
v -76 -198 0
v -74 -198 0
v -76 -200 0
v -78 -200 0
v -78 -198 0
v -76 -198 0
v -78 -200 0
v -80 -200 0
v -80 -198 0
v -78 -198 0
v -80 -200 0
v -82 -200 0
v -82 -198 0
v -80 -198 0
v -82 -200 0
v -84 -200 0
v -84 -198 0
v -82 -198 0
v -84 -200 0
v -86 -200 0
v -86 -198 0
v -84 -198 0
v -108 -200 0
v -110 -200 0
v -110 -198 0
v -108 -198 0
v -110 -200 0
v -112 -200 0
v -112 -198 0
v -110 -198 0

# Texture cooridinates (Count = 20)
vt 0.4 0.6666666
vt 0.6 0.6666666
vt 0.6 1
vt 0.4 1
vt 0.8 0.6666666
vt 1 0.6666666
vt 1 1
vt 0.8 1
vt 0.2 0
vt 0.4 0
vt 0.4 0.3333333
vt 0.2 0.3333333
vt 0 0
vt 0 0.3333333
vt 0.6 0.3333333
vt 0.8 0.3333333
vt 1 0.3333333
vt 0.6 0
vt 0.2 0.6666666
vt 0.8 0

# Normal
vn 0 0 -1

# Mesh description
g Thicket_mesh_0007

# Faces
f 1/1/1 2/2/1 3/3/1 4/4/1
f 5/1/1 6/2/1 7/3/1 8/4/1
f 9/5/1 10/6/1 11/7/1 12/8/1
f 13/1/1 14/2/1 15/3/1 16/4/1
f 17/2/1 18/5/1 19/8/1 20/3/1
f 21/9/1 22/10/1 23/11/1 24/12/1
f 25/1/1 26/2/1 27/3/1 28/4/1
f 29/5/1 30/6/1 31/7/1 32/8/1
f 33/1/1 34/2/1 35/3/1 36/4/1
f 37/2/1 38/5/1 39/8/1 40/3/1
f 41/5/1 42/6/1 43/7/1 44/8/1
f 45/1/1 46/2/1 47/3/1 48/4/1
f 49/9/1 50/10/1 51/11/1 52/12/1
f 53/13/1 54/9/1 55/12/1 56/14/1
f 57/5/1 58/6/1 59/7/1 60/8/1
f 61/1/1 62/2/1 63/3/1 64/4/1
f 65/2/1 66/5/1 67/8/1 68/3/1
f 69/9/1 70/10/1 71/11/1 72/12/1
f 73/15/1 74/16/1 75/5/1 76/2/1
f 77/15/1 78/16/1 79/5/1 80/2/1
f 81/1/1 82/2/1 83/3/1 84/4/1
f 85/2/1 86/5/1 87/8/1 88/3/1
f 89/9/1 90/10/1 91/11/1 92/12/1
f 93/13/1 94/9/1 95/12/1 96/14/1
f 97/2/1 98/5/1 99/8/1 100/3/1
f 101/2/1 102/5/1 103/8/1 104/3/1
f 105/2/1 106/5/1 107/8/1 108/3/1
f 109/9/1 110/10/1 111/11/1 112/12/1
f 113/15/1 114/16/1 115/5/1 116/2/1
f 117/13/1 118/9/1 119/12/1 120/14/1
f 121/2/1 122/5/1 123/8/1 124/3/1
f 125/2/1 126/5/1 127/8/1 128/3/1
f 129/9/1 130/10/1 131/11/1 132/12/1
f 133/15/1 134/16/1 135/5/1 136/2/1
f 137/15/1 138/16/1 139/5/1 140/2/1
f 141/13/1 142/9/1 143/12/1 144/14/1
f 145/5/1 146/6/1 147/7/1 148/8/1
f 149/1/1 150/2/1 151/3/1 152/4/1
f 153/9/1 154/10/1 155/11/1 156/12/1
f 157/15/1 158/16/1 159/5/1 160/2/1
f 161/15/1 162/16/1 163/5/1 164/2/1
f 165/1/1 166/2/1 167/3/1 168/4/1
f 169/2/1 170/5/1 171/8/1 172/3/1
f 173/5/1 174/6/1 175/7/1 176/8/1
f 177/11/1 178/15/1 179/2/1 180/1/1
f 181/15/1 182/16/1 183/5/1 184/2/1
f 185/15/1 186/16/1 187/5/1 188/2/1
f 189/15/1 190/16/1 191/5/1 192/2/1
f 193/15/1 194/16/1 195/5/1 196/2/1
f 197/15/1 198/16/1 199/5/1 200/2/1
f 201/15/1 202/16/1 203/5/1 204/2/1
f 205/15/1 206/16/1 207/5/1 208/2/1
f 209/15/1 210/16/1 211/5/1 212/2/1
f 213/15/1 214/16/1 215/5/1 216/2/1
f 217/15/1 218/16/1 219/5/1 220/2/1
f 221/15/1 222/16/1 223/5/1 224/2/1
f 225/15/1 226/16/1 227/5/1 228/2/1
f 229/13/1 230/9/1 231/12/1 232/14/1
f 233/2/1 234/5/1 235/8/1 236/3/1
f 237/2/1 238/5/1 239/8/1 240/3/1
f 241/2/1 242/5/1 243/8/1 244/3/1
f 245/2/1 246/5/1 247/8/1 248/3/1
f 249/2/1 250/5/1 251/8/1 252/3/1
f 253/2/1 254/5/1 255/8/1 256/3/1
f 257/9/1 258/10/1 259/11/1 260/12/1
f 261/15/1 262/16/1 263/5/1 264/2/1
f 265/11/1 266/15/1 267/2/1 268/1/1
f 269/15/1 270/16/1 271/5/1 272/2/1
f 273/16/1 274/17/1 275/6/1 276/5/1
f 277/9/1 278/10/1 279/11/1 280/12/1
f 281/15/1 282/16/1 283/5/1 284/2/1
f 285/15/1 286/16/1 287/5/1 288/2/1
f 289/15/1 290/16/1 291/5/1 292/2/1
f 293/15/1 294/16/1 295/5/1 296/2/1
f 297/15/1 298/16/1 299/5/1 300/2/1
f 301/15/1 302/16/1 303/5/1 304/2/1
f 305/15/1 306/16/1 307/5/1 308/2/1
f 309/15/1 310/16/1 311/5/1 312/2/1
f 313/15/1 314/16/1 315/5/1 316/2/1
f 317/1/1 318/2/1 319/3/1 320/4/1
f 321/2/1 322/5/1 323/8/1 324/3/1
f 325/9/1 326/10/1 327/11/1 328/12/1
f 329/15/1 330/16/1 331/5/1 332/2/1
f 333/13/1 334/9/1 335/12/1 336/14/1
f 337/2/1 338/5/1 339/8/1 340/3/1
f 341/2/1 342/5/1 343/8/1 344/3/1
f 345/2/1 346/5/1 347/8/1 348/3/1
f 349/9/1 350/10/1 351/11/1 352/12/1
f 353/15/1 354/16/1 355/5/1 356/2/1
f 357/11/1 358/15/1 359/2/1 360/1/1
f 361/15/1 362/16/1 363/5/1 364/2/1
f 365/15/1 366/16/1 367/5/1 368/2/1
f 369/15/1 370/16/1 371/5/1 372/2/1
f 373/15/1 374/16/1 375/5/1 376/2/1
f 377/15/1 378/16/1 379/5/1 380/2/1
f 381/15/1 382/16/1 383/5/1 384/2/1
f 385/15/1 386/16/1 387/5/1 388/2/1
f 389/11/1 390/15/1 391/2/1 392/1/1
f 393/15/1 394/16/1 395/5/1 396/2/1
f 397/10/1 398/18/1 399/15/1 400/11/1
f 401/12/1 402/11/1 403/1/1 404/19/1
f 405/15/1 406/16/1 407/5/1 408/2/1
f 409/10/1 410/18/1 411/15/1 412/11/1
f 413/12/1 414/11/1 415/1/1 416/19/1
f 417/15/1 418/16/1 419/5/1 420/2/1
f 421/15/1 422/16/1 423/5/1 424/2/1
f 425/10/1 426/18/1 427/15/1 428/11/1
f 429/18/1 430/20/1 431/16/1 432/15/1
f 433/12/1 434/11/1 435/1/1 436/19/1
f 437/15/1 438/16/1 439/5/1 440/2/1
f 441/10/1 442/18/1 443/15/1 444/11/1
f 445/12/1 446/11/1 447/1/1 448/19/1
f 449/15/1 450/16/1 451/5/1 452/2/1
f 453/11/1 454/15/1 455/2/1 456/1/1
f 457/15/1 458/16/1 459/5/1 460/2/1
f 461/11/1 462/15/1 463/2/1 464/1/1
f 465/15/1 466/16/1 467/5/1 468/2/1
f 469/11/1 470/15/1 471/2/1 472/1/1
f 473/15/1 474/16/1 475/5/1 476/2/1
f 477/1/1 478/2/1 479/3/1 480/4/1
f 481/9/1 482/10/1 483/11/1 484/12/1
f 485/15/1 486/16/1 487/5/1 488/2/1
f 489/1/1 490/2/1 491/3/1 492/4/1
f 493/2/1 494/5/1 495/8/1 496/3/1
f 497/9/1 498/10/1 499/11/1 500/12/1
f 501/15/1 502/16/1 503/5/1 504/2/1
f 505/1/1 506/2/1 507/3/1 508/4/1
f 509/9/1 510/10/1 511/11/1 512/12/1
f 513/15/1 514/16/1 515/5/1 516/2/1
f 517/15/1 518/16/1 519/5/1 520/2/1
f 521/1/1 522/2/1 523/3/1 524/4/1
f 525/9/1 526/10/1 527/11/1 528/12/1
f 529/15/1 530/16/1 531/5/1 532/2/1
f 533/1/1 534/2/1 535/3/1 536/4/1
f 537/9/1 538/10/1 539/11/1 540/12/1
f 541/15/1 542/16/1 543/5/1 544/2/1
f 545/1/1 546/2/1 547/3/1 548/4/1
f 549/2/1 550/5/1 551/8/1 552/3/1
f 553/2/1 554/5/1 555/8/1 556/3/1
f 557/5/1 558/6/1 559/7/1 560/8/1
f 561/1/1 562/2/1 563/3/1 564/4/1
f 565/9/1 566/10/1 567/11/1 568/12/1
f 569/15/1 570/16/1 571/5/1 572/2/1
f 573/11/1 574/15/1 575/2/1 576/1/1
f 577/15/1 578/16/1 579/5/1 580/2/1
f 581/15/1 582/16/1 583/5/1 584/2/1
f 585/13/1 586/9/1 587/12/1 588/14/1
f 589/5/1 590/6/1 591/7/1 592/8/1
f 593/1/1 594/2/1 595/3/1 596/4/1
f 597/9/1 598/10/1 599/11/1 600/12/1
f 601/15/1 602/16/1 603/5/1 604/2/1
f 605/10/1 606/18/1 607/15/1 608/11/1
f 609/12/1 610/11/1 611/1/1 612/19/1
f 613/15/1 614/16/1 615/5/1 616/2/1
f 617/15/1 618/16/1 619/5/1 620/2/1
f 621/13/1 622/9/1 623/12/1 624/14/1
f 625/2/1 626/5/1 627/8/1 628/3/1
f 629/2/1 630/5/1 631/8/1 632/3/1
f 633/9/1 634/10/1 635/11/1 636/12/1
f 637/15/1 638/16/1 639/5/1 640/2/1
f 641/10/1 642/18/1 643/15/1 644/11/1
f 645/12/1 646/11/1 647/1/1 648/19/1
f 649/15/1 650/16/1 651/5/1 652/2/1
f 653/15/1 654/16/1 655/5/1 656/2/1
f 657/15/1 658/16/1 659/5/1 660/2/1
f 661/15/1 662/16/1 663/5/1 664/2/1
f 665/15/1 666/16/1 667/5/1 668/2/1
f 669/10/1 670/18/1 671/15/1 672/11/1
f 673/12/1 674/11/1 675/1/1 676/19/1
f 677/15/1 678/16/1 679/5/1 680/2/1
f 681/11/1 682/15/1 683/2/1 684/1/1
f 685/15/1 686/16/1 687/5/1 688/2/1
f 689/10/1 690/18/1 691/15/1 692/11/1
f 693/12/1 694/11/1 695/1/1 696/19/1
f 697/15/1 698/16/1 699/5/1 700/2/1
f 701/11/1 702/15/1 703/2/1 704/1/1
f 705/15/1 706/16/1 707/5/1 708/2/1
f 709/11/1 710/15/1 711/2/1 712/1/1
f 713/15/1 714/16/1 715/5/1 716/2/1
f 717/11/1 718/15/1 719/2/1 720/1/1
f 721/15/1 722/16/1 723/5/1 724/2/1
f 725/11/1 726/15/1 727/2/1 728/1/1
f 729/15/1 730/16/1 731/5/1 732/2/1
f 733/1/1 734/2/1 735/3/1 736/4/1
f 737/2/1 738/5/1 739/8/1 740/3/1
f 741/5/1 742/6/1 743/7/1 744/8/1
f 745/1/1 746/2/1 747/3/1 748/4/1
f 749/9/1 750/10/1 751/11/1 752/12/1
f 753/15/1 754/16/1 755/5/1 756/2/1
f 757/10/1 758/18/1 759/15/1 760/11/1
f 761/12/1 762/11/1 763/1/1 764/19/1
f 765/13/1 766/9/1 767/12/1 768/14/1
f 769/2/1 770/5/1 771/8/1 772/3/1
f 773/9/1 774/10/1 775/11/1 776/12/1
f 777/15/1 778/16/1 779/5/1 780/2/1
f 781/11/1 782/15/1 783/2/1 784/1/1
f 785/15/1 786/16/1 787/5/1 788/2/1
f 789/15/1 790/16/1 791/5/1 792/2/1
f 793/15/1 794/16/1 795/5/1 796/2/1
f 797/11/1 798/15/1 799/2/1 800/1/1
f 801/15/1 802/16/1 803/5/1 804/2/1
f 805/12/1 806/11/1 807/1/1 808/19/1
f 809/15/1 810/16/1 811/5/1 812/2/1
f 813/11/1 814/15/1 815/2/1 816/1/1
f 817/15/1 818/16/1 819/5/1 820/2/1
f 821/11/1 822/15/1 823/2/1 824/1/1
f 825/15/1 826/16/1 827/5/1 828/2/1
f 829/10/1 830/18/1 831/15/1 832/11/1
f 833/12/1 834/11/1 835/1/1 836/19/1
f 837/15/1 838/16/1 839/5/1 840/2/1
f 841/11/1 842/15/1 843/2/1 844/1/1
f 845/15/1 846/16/1 847/5/1 848/2/1
f 849/2/1 850/5/1 851/8/1 852/3/1
f 853/2/1 854/5/1 855/8/1 856/3/1
f 857/2/1 858/5/1 859/8/1 860/3/1
f 861/2/1 862/5/1 863/8/1 864/3/1
f 865/2/1 866/5/1 867/8/1 868/3/1
f 869/2/1 870/5/1 871/8/1 872/3/1
f 873/2/1 874/5/1 875/8/1 876/3/1
f 877/2/1 878/5/1 879/8/1 880/3/1
f 881/2/1 882/5/1 883/8/1 884/3/1
f 885/2/1 886/5/1 887/8/1 888/3/1
f 889/2/1 890/5/1 891/8/1 892/3/1
f 893/2/1 894/5/1 895/8/1 896/3/1
f 897/2/1 898/5/1 899/8/1 900/3/1
f 901/2/1 902/5/1 903/8/1 904/3/1
f 905/2/1 906/5/1 907/8/1 908/3/1
f 909/2/1 910/5/1 911/8/1 912/3/1
f 913/2/1 914/5/1 915/8/1 916/3/1
f 917/2/1 918/5/1 919/8/1 920/3/1
f 921/2/1 922/5/1 923/8/1 924/3/1
f 925/2/1 926/5/1 927/8/1 928/3/1
f 929/2/1 930/5/1 931/8/1 932/3/1
f 933/2/1 934/5/1 935/8/1 936/3/1
f 937/2/1 938/5/1 939/8/1 940/3/1
f 941/2/1 942/5/1 943/8/1 944/3/1
f 945/2/1 946/5/1 947/8/1 948/3/1
f 949/2/1 950/5/1 951/8/1 952/3/1
f 953/2/1 954/5/1 955/8/1 956/3/1
f 957/2/1 958/5/1 959/8/1 960/3/1
f 961/2/1 962/5/1 963/8/1 964/3/1
f 965/2/1 966/5/1 967/8/1 968/3/1
f 969/2/1 970/5/1 971/8/1 972/3/1
f 973/2/1 974/5/1 975/8/1 976/3/1
f 977/2/1 978/5/1 979/8/1 980/3/1
f 981/2/1 982/5/1 983/8/1 984/3/1
f 985/2/1 986/5/1 987/8/1 988/3/1
f 989/2/1 990/5/1 991/8/1 992/3/1
f 993/2/1 994/5/1 995/8/1 996/3/1
f 997/2/1 998/5/1 999/8/1 1000/3/1
f 1001/2/1 1002/5/1 1003/8/1 1004/3/1
f 1005/2/1 1006/5/1 1007/8/1 1008/3/1
f 1009/2/1 1010/5/1 1011/8/1 1012/3/1
f 1013/2/1 1014/5/1 1015/8/1 1016/3/1
f 1017/5/1 1018/6/1 1019/7/1 1020/8/1
f 1021/11/1 1022/15/1 1023/2/1 1024/1/1
f 1025/15/1 1026/16/1 1027/5/1 1028/2/1

