# Tiled2Unity generated file. Do not modify by hand.
# Wavefront file for 'Map_mesh_0003.obj'

# Vertices (Count = 612)
v -28 -84 0
v -30 -84 0
v -30 -82 0
v -28 -82 0
v -30 -84 0
v -32 -84 0
v -32 -82 0
v -30 -82 0
v -32 -84 0
v -34 -84 0
v -34 -82 0
v -32 -82 0
v -46 -86 0
v -48 -86 0
v -48 -84 0
v -46 -84 0
v -48 -86 0
v -50 -86 0
v -50 -84 0
v -48 -84 0
v -50 -86 0
v -52 -86 0
v -52 -84 0
v -50 -84 0
v -28 -88 0
v -30 -88 0
v -30 -86 0
v -28 -86 0
v -30 -88 0
v -32 -88 0
v -32 -86 0
v -30 -86 0
v -32 -88 0
v -34 -88 0
v -34 -86 0
v -32 -86 0
v -46 -88 0
v -48 -88 0
v -48 -86 0
v -46 -86 0
v -48 -88 0
v -50 -88 0
v -50 -86 0
v -48 -86 0
v -50 -88 0
v -52 -88 0
v -52 -86 0
v -50 -86 0
v -52 -88 0
v -54 -88 0
v -54 -86 0
v -52 -86 0
v -28 -90 0
v -30 -90 0
v -30 -88 0
v -28 -88 0
v -40 -90 0
v -42 -90 0
v -42 -88 0
v -40 -88 0
v -46 -90 0
v -48 -90 0
v -48 -88 0
v -46 -88 0
v -48 -90 0
v -50 -90 0
v -50 -88 0
v -48 -88 0
v -50 -90 0
v -52 -90 0
v -52 -88 0
v -50 -88 0
v -32 -92 0
v -34 -92 0
v -34 -90 0
v -32 -90 0
v -48 -92 0
v -50 -92 0
v -50 -90 0
v -48 -90 0
v -54 -92 0
v -56 -92 0
v -56 -90 0
v -54 -90 0
v -62 -92 0
v -64 -92 0
v -64 -90 0
v -62 -90 0
v -30 -94 0
v -32 -94 0
v -32 -92 0
v -30 -92 0
v -44 -94 0
v -46 -94 0
v -46 -92 0
v -44 -92 0
v -66 -94 0
v -68 -94 0
v -68 -92 0
v -66 -92 0
v -70 -94 0
v -72 -94 0
v -72 -92 0
v -70 -92 0
v -64 -96 0
v -66 -96 0
v -66 -94 0
v -64 -94 0
v -68 -96 0
v -70 -96 0
v -70 -94 0
v -68 -94 0
v -26 -98 0
v -28 -98 0
v -28 -96 0
v -26 -96 0
v -60 -98 0
v -62 -98 0
v -62 -96 0
v -60 -96 0
v -62 -98 0
v -64 -98 0
v -64 -96 0
v -62 -96 0
v -64 -98 0
v -66 -98 0
v -66 -96 0
v -64 -96 0
v -70 -98 0
v -72 -98 0
v -72 -96 0
v -70 -96 0
v -60 -100 0
v -62 -100 0
v -62 -98 0
v -60 -98 0
v -62 -100 0
v -64 -100 0
v -64 -98 0
v -62 -98 0
v -64 -100 0
v -66 -100 0
v -66 -98 0
v -64 -98 0
v -66 -100 0
v -68 -100 0
v -68 -98 0
v -66 -98 0
v -72 -100 0
v -74 -100 0
v -74 -98 0
v -72 -98 0
v -78 -100 0
v -80 -100 0
v -80 -98 0
v -78 -98 0
v -58 -102 0
v -60 -102 0
v -60 -100 0
v -58 -100 0
v -64 -102 0
v -66 -102 0
v -66 -100 0
v -64 -100 0
v -80 -102 0
v -82 -102 0
v -82 -100 0
v -80 -100 0
v -54 -104 0
v -56 -104 0
v -56 -102 0
v -54 -102 0
v -58 -104 0
v -60 -104 0
v -60 -102 0
v -58 -102 0
v -86 -104 0
v -88 -104 0
v -88 -102 0
v -86 -102 0
v -88 -104 0
v -90 -104 0
v -90 -102 0
v -88 -102 0
v -94 -104 0
v -96 -104 0
v -96 -102 0
v -94 -102 0
v -96 -104 0
v -98 -104 0
v -98 -102 0
v -96 -102 0
v -98 -104 0
v -100 -104 0
v -100 -102 0
v -98 -102 0
v -34 -106 0
v -36 -106 0
v -36 -104 0
v -34 -104 0
v -70 -106 0
v -72 -106 0
v -72 -104 0
v -70 -104 0
v -90 -106 0
v -92 -106 0
v -92 -104 0
v -90 -104 0
v -94 -106 0
v -96 -106 0
v -96 -104 0
v -94 -104 0
v -96 -106 0
v -98 -106 0
v -98 -104 0
v -96 -104 0
v -26 -108 0
v -28 -108 0
v -28 -106 0
v -26 -106 0
v -50 -108 0
v -52 -108 0
v -52 -106 0
v -50 -106 0
v -72 -108 0
v -74 -108 0
v -74 -106 0
v -72 -106 0
v -92 -108 0
v -94 -108 0
v -94 -106 0
v -92 -106 0
v -24 -110 0
v -26 -110 0
v -26 -108 0
v -24 -108 0
v -32 -110 0
v -34 -110 0
v -34 -108 0
v -32 -108 0
v -50 -110 0
v -52 -110 0
v -52 -108 0
v -50 -108 0
v -52 -112 0
v -54 -112 0
v -54 -110 0
v -52 -110 0
v -72 -112 0
v -74 -112 0
v -74 -110 0
v -72 -110 0
v -74 -112 0
v -76 -112 0
v -76 -110 0
v -74 -110 0
v -22 -114 0
v -24 -114 0
v -24 -112 0
v -22 -112 0
v -34 -114 0
v -36 -114 0
v -36 -112 0
v -34 -112 0
v -50 -114 0
v -52 -114 0
v -52 -112 0
v -50 -112 0
v -52 -114 0
v -54 -114 0
v -54 -112 0
v -52 -112 0
v -54 -114 0
v -56 -114 0
v -56 -112 0
v -54 -112 0
v -64 -114 0
v -66 -114 0
v -66 -112 0
v -64 -112 0
v -68 -114 0
v -70 -114 0
v -70 -112 0
v -68 -112 0
v -70 -114 0
v -72 -114 0
v -72 -112 0
v -70 -112 0
v -72 -114 0
v -74 -114 0
v -74 -112 0
v -72 -112 0
v -74 -114 0
v -76 -114 0
v -76 -112 0
v -74 -112 0
v -36 -116 0
v -38 -116 0
v -38 -114 0
v -36 -114 0
v -52 -116 0
v -54 -116 0
v -54 -114 0
v -52 -114 0
v -56 -116 0
v -58 -116 0
v -58 -114 0
v -56 -114 0
v -62 -116 0
v -64 -116 0
v -64 -114 0
v -62 -114 0
v -72 -116 0
v -74 -116 0
v -74 -114 0
v -72 -114 0
v -22 -118 0
v -24 -118 0
v -24 -116 0
v -22 -116 0
v -24 -118 0
v -26 -118 0
v -26 -116 0
v -24 -116 0
v -26 -118 0
v -28 -118 0
v -28 -116 0
v -26 -116 0
v -48 -118 0
v -50 -118 0
v -50 -116 0
v -48 -116 0
v -74 -118 0
v -76 -118 0
v -76 -116 0
v -74 -116 0
v -34 -120 0
v -36 -120 0
v -36 -118 0
v -34 -118 0
v -46 -120 0
v -48 -120 0
v -48 -118 0
v -46 -118 0
v -76 -122 0
v -78 -122 0
v -78 -120 0
v -76 -120 0
v -80 -122 0
v -82 -122 0
v -82 -120 0
v -80 -120 0
v -82 -122 0
v -84 -122 0
v -84 -120 0
v -82 -120 0
v -26 -124 0
v -28 -124 0
v -28 -122 0
v -26 -122 0
v -76 -124 0
v -78 -124 0
v -78 -122 0
v -76 -122 0
v -80 -124 0
v -82 -124 0
v -82 -122 0
v -80 -122 0
v -82 -124 0
v -84 -124 0
v -84 -122 0
v -82 -122 0
v -84 -124 0
v -86 -124 0
v -86 -122 0
v -84 -122 0
v -74 -126 0
v -76 -126 0
v -76 -124 0
v -74 -124 0
v -84 -126 0
v -86 -126 0
v -86 -124 0
v -84 -124 0
v -18 -128 0
v -20 -128 0
v -20 -126 0
v -18 -126 0
v -74 -128 0
v -76 -128 0
v -76 -126 0
v -74 -126 0
v -78 -128 0
v -80 -128 0
v -80 -126 0
v -78 -126 0
v -80 -128 0
v -82 -128 0
v -82 -126 0
v -80 -126 0
v -86 -128 0
v -88 -128 0
v -88 -126 0
v -86 -126 0
v -18 -130 0
v -20 -130 0
v -20 -128 0
v -18 -128 0
v -20 -130 0
v -22 -130 0
v -22 -128 0
v -20 -128 0
v -38 -130 0
v -40 -130 0
v -40 -128 0
v -38 -128 0
v -78 -130 0
v -80 -130 0
v -80 -128 0
v -78 -128 0
v -80 -130 0
v -82 -130 0
v -82 -128 0
v -80 -128 0
v -84 -130 0
v -86 -130 0
v -86 -128 0
v -84 -128 0
v -20 -132 0
v -22 -132 0
v -22 -130 0
v -20 -130 0
v -84 -132 0
v -86 -132 0
v -86 -130 0
v -84 -130 0
v -78 -134 0
v -80 -134 0
v -80 -132 0
v -78 -132 0
v -80 -134 0
v -82 -134 0
v -82 -132 0
v -80 -132 0
v -22 -136 0
v -24 -136 0
v -24 -134 0
v -22 -134 0
v -24 -140 0
v -26 -140 0
v -26 -138 0
v -24 -138 0
v -26 -144 0
v -28 -144 0
v -28 -142 0
v -26 -142 0
v -44 -144 0
v -46 -144 0
v -46 -142 0
v -44 -142 0
v -24 -146 0
v -26 -146 0
v -26 -144 0
v -24 -144 0
v -26 -146 0
v -28 -146 0
v -28 -144 0
v -26 -144 0
v -36 -146 0
v -38 -146 0
v -38 -144 0
v -36 -144 0
v -38 -146 0
v -40 -146 0
v -40 -144 0
v -38 -144 0
v -42 -146 0
v -44 -146 0
v -44 -144 0
v -42 -144 0
v -44 -146 0
v -46 -146 0
v -46 -144 0
v -44 -144 0
v -46 -146 0
v -48 -146 0
v -48 -144 0
v -46 -144 0
v -26 -150 0
v -28 -150 0
v -28 -148 0
v -26 -148 0
v -28 -150 0
v -30 -150 0
v -30 -148 0
v -28 -148 0
v -38 -162 0
v -40 -162 0
v -40 -160 0
v -38 -160 0
v -36 -164 0
v -38 -164 0
v -38 -162 0
v -36 -162 0
v -38 -164 0
v -40 -164 0
v -40 -162 0
v -38 -162 0
v -36 -166 0
v -38 -166 0
v -38 -164 0
v -36 -164 0
v -38 -166 0
v -40 -166 0
v -40 -164 0
v -38 -164 0
v -40 -166 0
v -42 -166 0
v -42 -164 0
v -40 -164 0
v -42 -166 0
v -44 -166 0
v -44 -164 0
v -42 -164 0
v -36 -168 0
v -38 -168 0
v -38 -166 0
v -36 -166 0
v -44 -168 0
v -46 -168 0
v -46 -166 0
v -44 -166 0
v -34 -170 0
v -36 -170 0
v -36 -168 0
v -34 -168 0
v -36 -170 0
v -38 -170 0
v -38 -168 0
v -36 -168 0
v -38 -170 0
v -40 -170 0
v -40 -168 0
v -38 -168 0
v -32 -172 0
v -34 -172 0
v -34 -170 0
v -32 -170 0
v -38 -172 0
v -40 -172 0
v -40 -170 0
v -38 -170 0
v -26 -174 0
v -28 -174 0
v -28 -172 0
v -26 -172 0
v -26 -176 0
v -28 -176 0
v -28 -174 0
v -26 -174 0
v -30 -176 0
v -32 -176 0
v -32 -174 0
v -30 -174 0
v -46 -178 0
v -48 -178 0
v -48 -176 0
v -46 -176 0
v -50 -178 0
v -52 -178 0
v -52 -176 0
v -50 -176 0
v -42 -182 0
v -44 -182 0
v -44 -180 0
v -42 -180 0
v -42 -184 0
v -44 -184 0
v -44 -182 0
v -42 -182 0
v -44 -186 0
v -46 -186 0
v -46 -184 0
v -44 -184 0
v -50 -186 0
v -52 -186 0
v -52 -184 0
v -50 -184 0
v -40 -188 0
v -42 -188 0
v -42 -186 0
v -40 -186 0
v -40 -190 0
v -42 -190 0
v -42 -188 0
v -40 -188 0
v -40 -192 0
v -42 -192 0
v -42 -190 0
v -40 -190 0
v -48 -192 0
v -50 -192 0
v -50 -190 0
v -48 -190 0
v -38 -194 0
v -40 -194 0
v -40 -192 0
v -38 -192 0
v -48 -196 0
v -50 -196 0
v -50 -194 0
v -48 -194 0

# Texture cooridinates (Count = 98)
vt 0.125 0.8055556
vt 0.15 0.8055556
vt 0.15 0.8333333
vt 0.125 0.8333333
vt 0.175 0.8055556
vt 0.175 0.8333333
vt 0.2 0.8055556
vt 0.2 0.8333333
vt 0.125 0.75
vt 0.15 0.75
vt 0.15 0.7777778
vt 0.125 0.7777778
vt 0.175 0.75
vt 0.175 0.7777778
vt 0.2 0.75
vt 0.2 0.7777778
vt 0.05 0.9722222
vt 0.075 0.9722222
vt 0.075 1
vt 0.05 1
vt 0.025 0.75
vt 0.05 0.75
vt 0.05 0.7777778
vt 0.025 0.7777778
vt 0.05 0.6388889
vt 0.075 0.6388889
vt 0.075 0.6666666
vt 0.05 0.6666666
vt 0.25 0.8333333
vt 0.275 0.8333333
vt 0.275 0.8611111
vt 0.25 0.8611111
vt 0.1 0.9722222
vt 0.1 1
vt 0.1 0.6388889
vt 0.1 0.6666666
vt 0.3 0.6944444
vt 0.325 0.6944444
vt 0.325 0.7222222
vt 0.3 0.7222222
vt 0.125 0.9722222
vt 0.15 0.9722222
vt 0.15 1
vt 0.125 1
vt 0.1 0.9444444
vt 0.125 0.9444444
vt 0.15 0.9444444
vt 0.35 0.6944444
vt 0.375 0.6944444
vt 0.375 0.7222222
vt 0.35 0.7222222
vt 0.1 0.9166667
vt 0.125 0.9166667
vt 0.15 0.9166667
vt 0.275 0.7777778
vt 0.3 0.7777778
vt 0.3 0.8055556
vt 0.275 0.8055556
vt 0.325 0.7777778
vt 0.325 0.8055556
vt 0.275 0.75
vt 0.3 0.75
vt 0.325 0.75
vt 0.225 0.8333333
vt 0.225 0.8611111
vt 0.175 0.8611111
vt 0.15 0.8611111
vt 0.1 0.6944444
vt 0.075 0.6944444
vt 0 0.75
vt 0 0.7777778
vt 0.2 0.8611111
vt 0.025 0.9722222
vt 0.025 1
vt 0.075 0.8333333
vt 0.1 0.8333333
vt 0.1 0.8611111
vt 0.075 0.8611111
vt 0.125 0.8611111
vt 0.775 0.8888889
vt 0.8 0.8888889
vt 0.8 0.9166667
vt 0.775 0.9166667
vt 0.825 0.8888889
vt 0.825 0.9166667
vt 0.775 0.8611111
vt 0.8 0.8611111
vt 0.825 0.8611111
vt 0.1 0.5
vt 0.125 0.5
vt 0.125 0.5277778
vt 0.1 0.5277778
vt 0.025 0.4444444
vt 0.05 0.4444444
vt 0.05 0.4722222
vt 0.025 0.4722222
vt 0 0.4444444
vt 0 0.4722222

# Normal
vn 0 0 -1

# Mesh description
g Map_mesh_0003

# Faces
f 1/1/1 2/2/1 3/3/1 4/4/1
f 5/2/1 6/5/1 7/6/1 8/3/1
f 9/5/1 10/7/1 11/8/1 12/6/1
f 13/1/1 14/2/1 15/3/1 16/4/1
f 17/2/1 18/5/1 19/6/1 20/3/1
f 21/5/1 22/7/1 23/8/1 24/6/1
f 25/9/1 26/10/1 27/11/1 28/12/1
f 29/10/1 30/13/1 31/14/1 32/11/1
f 33/13/1 34/15/1 35/16/1 36/14/1
f 37/12/1 38/11/1 39/2/1 40/1/1
f 41/11/1 42/14/1 43/5/1 44/2/1
f 45/14/1 46/16/1 47/7/1 48/5/1
f 49/17/1 50/18/1 51/19/1 52/20/1
f 53/21/1 54/22/1 55/23/1 56/24/1
f 57/25/1 58/26/1 59/27/1 60/28/1
f 61/9/1 62/10/1 63/11/1 64/12/1
f 65/10/1 66/13/1 67/14/1 68/11/1
f 69/13/1 70/15/1 71/16/1 72/14/1
f 73/29/1 74/30/1 75/31/1 76/32/1
f 77/25/1 78/26/1 79/27/1 80/28/1
f 81/25/1 82/26/1 83/27/1 84/28/1
f 85/18/1 86/33/1 87/34/1 88/19/1
f 89/25/1 90/26/1 91/27/1 92/28/1
f 93/26/1 94/35/1 95/36/1 96/27/1
f 97/37/1 98/38/1 99/39/1 100/40/1
f 101/41/1 102/42/1 103/43/1 104/44/1
f 105/25/1 106/26/1 107/27/1 108/28/1
f 109/17/1 110/18/1 111/19/1 112/20/1
f 113/25/1 114/26/1 115/27/1 116/28/1
f 117/25/1 118/26/1 119/27/1 120/28/1
f 121/45/1 122/46/1 123/41/1 124/33/1
f 125/46/1 126/47/1 127/42/1 128/41/1
f 129/48/1 130/49/1 131/50/1 132/51/1
f 133/26/1 134/35/1 135/36/1 136/27/1
f 137/52/1 138/53/1 139/46/1 140/45/1
f 141/53/1 142/54/1 143/47/1 144/46/1
f 145/26/1 146/35/1 147/36/1 148/27/1
f 149/33/1 150/41/1 151/44/1 152/34/1
f 153/18/1 154/33/1 155/34/1 156/19/1
f 157/21/1 158/22/1 159/23/1 160/24/1
f 161/21/1 162/22/1 163/23/1 164/24/1
f 165/17/1 166/18/1 167/19/1 168/20/1
f 169/26/1 170/35/1 171/36/1 172/27/1
f 173/25/1 174/26/1 175/27/1 176/28/1
f 177/48/1 178/49/1 179/50/1 180/51/1
f 181/38/1 182/48/1 183/51/1 184/39/1
f 185/55/1 186/56/1 187/57/1 188/58/1
f 189/56/1 190/59/1 191/60/1 192/57/1
f 193/48/1 194/49/1 195/50/1 196/51/1
f 197/21/1 198/22/1 199/23/1 200/24/1
f 201/21/1 202/22/1 203/23/1 204/24/1
f 205/37/1 206/38/1 207/39/1 208/40/1
f 209/61/1 210/62/1 211/56/1 212/55/1
f 213/62/1 214/63/1 215/59/1 216/56/1
f 217/26/1 218/35/1 219/36/1 220/27/1
f 221/64/1 222/29/1 223/32/1 224/65/1
f 225/25/1 226/26/1 227/27/1 228/28/1
f 229/48/1 230/49/1 231/50/1 232/51/1
f 233/25/1 234/26/1 235/27/1 236/28/1
f 237/29/1 238/30/1 239/31/1 240/32/1
f 241/25/1 242/26/1 243/27/1 244/28/1
f 245/21/1 246/22/1 247/23/1 248/24/1
f 249/25/1 250/26/1 251/27/1 252/28/1
f 253/29/1 254/30/1 255/31/1 256/32/1
f 257/26/1 258/35/1 259/36/1 260/27/1
f 261/3/1 262/6/1 263/66/1 264/67/1
f 265/26/1 266/35/1 267/36/1 268/27/1
f 269/27/1 270/36/1 271/68/1 272/69/1
f 273/25/1 274/26/1 275/27/1 276/28/1
f 277/29/1 278/30/1 279/31/1 280/32/1
f 281/25/1 282/26/1 283/27/1 284/28/1
f 285/21/1 286/22/1 287/23/1 288/24/1
f 289/70/1 290/21/1 291/24/1 292/71/1
f 293/21/1 294/22/1 295/23/1 296/24/1
f 297/21/1 298/22/1 299/23/1 300/24/1
f 301/25/1 302/26/1 303/27/1 304/28/1
f 305/26/1 306/35/1 307/36/1 308/27/1
f 309/6/1 310/8/1 311/72/1 312/66/1
f 313/26/1 314/35/1 315/36/1 316/27/1
f 317/21/1 318/22/1 319/23/1 320/24/1
f 321/73/1 322/17/1 323/20/1 324/74/1
f 325/70/1 326/21/1 327/24/1 328/71/1
f 329/21/1 330/22/1 331/23/1 332/24/1
f 333/21/1 334/22/1 335/23/1 336/24/1
f 337/73/1 338/17/1 339/20/1 340/74/1
f 341/25/1 342/26/1 343/27/1 344/28/1
f 345/25/1 346/26/1 347/27/1 348/28/1
f 349/64/1 350/29/1 351/32/1 352/65/1
f 353/21/1 354/22/1 355/23/1 356/24/1
f 357/25/1 358/26/1 359/27/1 360/28/1
f 361/73/1 362/17/1 363/20/1 364/74/1
f 365/75/1 366/76/1 367/77/1 368/78/1
f 369/76/1 370/4/1 371/79/1 372/77/1
f 373/4/1 374/3/1 375/67/1 376/79/1
f 377/29/1 378/30/1 379/31/1 380/32/1
f 381/21/1 382/22/1 383/23/1 384/24/1
f 385/70/1 386/21/1 387/24/1 388/71/1
f 389/26/1 390/35/1 391/36/1 392/27/1
f 393/80/1 394/81/1 395/82/1 396/83/1
f 397/81/1 398/84/1 399/85/1 400/82/1
f 401/70/1 402/21/1 403/24/1 404/71/1
f 405/26/1 406/35/1 407/36/1 408/27/1
f 409/21/1 410/22/1 411/23/1 412/24/1
f 413/73/1 414/17/1 415/20/1 416/74/1
f 417/86/1 418/87/1 419/81/1 420/80/1
f 421/87/1 422/88/1 423/84/1 424/81/1
f 425/6/1 426/8/1 427/72/1 428/66/1
f 429/25/1 430/26/1 431/27/1 432/28/1
f 433/21/1 434/22/1 435/23/1 436/24/1
f 437/64/1 438/29/1 439/32/1 440/65/1
f 441/25/1 442/26/1 443/27/1 444/28/1
f 445/73/1 446/17/1 447/20/1 448/74/1
f 449/25/1 450/26/1 451/27/1 452/28/1
f 453/26/1 454/35/1 455/36/1 456/27/1
f 457/25/1 458/26/1 459/27/1 460/28/1
f 461/25/1 462/26/1 463/27/1 464/28/1
f 465/70/1 466/21/1 467/24/1 468/71/1
f 469/89/1 470/90/1 471/91/1 472/92/1
f 473/93/1 474/94/1 475/95/1 476/96/1
f 477/97/1 478/93/1 479/96/1 480/98/1
f 481/89/1 482/90/1 483/91/1 484/92/1
f 485/89/1 486/90/1 487/91/1 488/92/1
f 489/25/1 490/26/1 491/27/1 492/28/1
f 493/73/1 494/17/1 495/20/1 496/74/1
f 497/29/1 498/30/1 499/31/1 500/32/1
f 501/80/1 502/81/1 503/82/1 504/83/1
f 505/81/1 506/84/1 507/85/1 508/82/1
f 509/86/1 510/87/1 511/81/1 512/80/1
f 513/87/1 514/88/1 515/84/1 516/81/1
f 517/73/1 518/17/1 519/20/1 520/74/1
f 521/25/1 522/26/1 523/27/1 524/28/1
f 525/27/1 526/36/1 527/68/1 528/69/1
f 529/26/1 530/35/1 531/36/1 532/27/1
f 533/25/1 534/26/1 535/27/1 536/28/1
f 537/21/1 538/22/1 539/23/1 540/24/1
f 541/26/1 542/35/1 543/36/1 544/27/1
f 545/26/1 546/35/1 547/36/1 548/27/1
f 549/8/1 550/64/1 551/65/1 552/72/1
f 553/29/1 554/30/1 555/31/1 556/32/1
f 557/26/1 558/35/1 559/36/1 560/27/1
f 561/25/1 562/26/1 563/27/1 564/28/1
f 565/73/1 566/17/1 567/20/1 568/74/1
f 569/26/1 570/35/1 571/36/1 572/27/1
f 573/25/1 574/26/1 575/27/1 576/28/1
f 577/21/1 578/22/1 579/23/1 580/24/1
f 581/73/1 582/17/1 583/20/1 584/74/1
f 585/3/1 586/6/1 587/66/1 588/67/1
f 589/64/1 590/29/1 591/32/1 592/65/1
f 593/25/1 594/26/1 595/27/1 596/28/1
f 597/70/1 598/21/1 599/24/1 600/71/1
f 601/25/1 602/26/1 603/27/1 604/28/1
f 605/25/1 606/26/1 607/27/1 608/28/1
f 609/21/1 610/22/1 611/23/1 612/24/1

