# Tiled2Unity generated file. Do not modify by hand.
# Wavefront file for 'Map_mesh_0007.obj'

# Vertices (Count = 848)
v -30 -130 0
v -32 -130 0
v -32 -128 0
v -30 -128 0
v -32 -130 0
v -34 -130 0
v -34 -128 0
v -32 -128 0
v -34 -130 0
v -36 -130 0
v -36 -128 0
v -34 -128 0
v -36 -130 0
v -38 -130 0
v -38 -128 0
v -36 -128 0
v -38 -130 0
v -40 -130 0
v -40 -128 0
v -38 -128 0
v -40 -130 0
v -42 -130 0
v -42 -128 0
v -40 -128 0
v -42 -130 0
v -44 -130 0
v -44 -128 0
v -42 -128 0
v -44 -130 0
v -46 -130 0
v -46 -128 0
v -44 -128 0
v -46 -130 0
v -48 -130 0
v -48 -128 0
v -46 -128 0
v -48 -130 0
v -50 -130 0
v -50 -128 0
v -48 -128 0
v -50 -130 0
v -52 -130 0
v -52 -128 0
v -50 -128 0
v -52 -130 0
v -54 -130 0
v -54 -128 0
v -52 -128 0
v -30 -132 0
v -32 -132 0
v -32 -130 0
v -30 -130 0
v -32 -132 0
v -34 -132 0
v -34 -130 0
v -32 -130 0
v -34 -132 0
v -36 -132 0
v -36 -130 0
v -34 -130 0
v -36 -132 0
v -38 -132 0
v -38 -130 0
v -36 -130 0
v -38 -132 0
v -40 -132 0
v -40 -130 0
v -38 -130 0
v -40 -132 0
v -42 -132 0
v -42 -130 0
v -40 -130 0
v -42 -132 0
v -44 -132 0
v -44 -130 0
v -42 -130 0
v -44 -132 0
v -46 -132 0
v -46 -130 0
v -44 -130 0
v -46 -132 0
v -48 -132 0
v -48 -130 0
v -46 -130 0
v -48 -132 0
v -50 -132 0
v -50 -130 0
v -48 -130 0
v -50 -132 0
v -52 -132 0
v -52 -130 0
v -50 -130 0
v -52 -132 0
v -54 -132 0
v -54 -130 0
v -52 -130 0
v -30 -134 0
v -32 -134 0
v -32 -132 0
v -30 -132 0
v -32 -134 0
v -34 -134 0
v -34 -132 0
v -32 -132 0
v -50 -134 0
v -52 -134 0
v -52 -132 0
v -50 -132 0
v -52 -134 0
v -54 -134 0
v -54 -132 0
v -52 -132 0
v -30 -136 0
v -32 -136 0
v -32 -134 0
v -30 -134 0
v -32 -136 0
v -34 -136 0
v -34 -134 0
v -32 -134 0
v -50 -136 0
v -52 -136 0
v -52 -134 0
v -50 -134 0
v -52 -136 0
v -54 -136 0
v -54 -134 0
v -52 -134 0
v -30 -138 0
v -32 -138 0
v -32 -136 0
v -30 -136 0
v -32 -138 0
v -34 -138 0
v -34 -136 0
v -32 -136 0
v -50 -138 0
v -52 -138 0
v -52 -136 0
v -50 -136 0
v -52 -138 0
v -54 -138 0
v -54 -136 0
v -52 -136 0
v -30 -140 0
v -32 -140 0
v -32 -138 0
v -30 -138 0
v -32 -140 0
v -34 -140 0
v -34 -138 0
v -32 -138 0
v -50 -140 0
v -52 -140 0
v -52 -138 0
v -50 -138 0
v -52 -140 0
v -54 -140 0
v -54 -138 0
v -52 -138 0
v -30 -142 0
v -32 -142 0
v -32 -140 0
v -30 -140 0
v -32 -142 0
v -34 -142 0
v -34 -140 0
v -32 -140 0
v -50 -142 0
v -52 -142 0
v -52 -140 0
v -50 -140 0
v -52 -142 0
v -54 -142 0
v -54 -140 0
v -52 -140 0
v -30 -144 0
v -32 -144 0
v -32 -142 0
v -30 -142 0
v -32 -144 0
v -34 -144 0
v -34 -142 0
v -32 -142 0
v -50 -144 0
v -52 -144 0
v -52 -142 0
v -50 -142 0
v -52 -144 0
v -54 -144 0
v -54 -142 0
v -52 -142 0
v -30 -146 0
v -32 -146 0
v -32 -144 0
v -30 -144 0
v -32 -146 0
v -34 -146 0
v -34 -144 0
v -32 -144 0
v -50 -146 0
v -52 -146 0
v -52 -144 0
v -50 -144 0
v -52 -146 0
v -54 -146 0
v -54 -144 0
v -52 -144 0
v -30 -148 0
v -32 -148 0
v -32 -146 0
v -30 -146 0
v -32 -148 0
v -34 -148 0
v -34 -146 0
v -32 -146 0
v -50 -148 0
v -52 -148 0
v -52 -146 0
v -50 -146 0
v -52 -148 0
v -54 -148 0
v -54 -146 0
v -52 -146 0
v -30 -150 0
v -32 -150 0
v -32 -148 0
v -30 -148 0
v -32 -150 0
v -34 -150 0
v -34 -148 0
v -32 -148 0
v -50 -150 0
v -52 -150 0
v -52 -148 0
v -50 -148 0
v -52 -150 0
v -54 -150 0
v -54 -148 0
v -52 -148 0
v -30 -152 0
v -32 -152 0
v -32 -150 0
v -30 -150 0
v -32 -152 0
v -34 -152 0
v -34 -150 0
v -32 -150 0
v -34 -152 0
v -36 -152 0
v -36 -150 0
v -34 -150 0
v -50 -152 0
v -52 -152 0
v -52 -150 0
v -50 -150 0
v -52 -152 0
v -54 -152 0
v -54 -150 0
v -52 -150 0
v -28 -154 0
v -30 -154 0
v -30 -152 0
v -28 -152 0
v -30 -154 0
v -32 -154 0
v -32 -152 0
v -30 -152 0
v -32 -154 0
v -34 -154 0
v -34 -152 0
v -32 -152 0
v -34 -154 0
v -36 -154 0
v -36 -152 0
v -34 -152 0
v -48 -154 0
v -50 -154 0
v -50 -152 0
v -48 -152 0
v -50 -154 0
v -52 -154 0
v -52 -152 0
v -50 -152 0
v -52 -154 0
v -54 -154 0
v -54 -152 0
v -52 -152 0
v -26 -156 0
v -28 -156 0
v -28 -154 0
v -26 -154 0
v -28 -156 0
v -30 -156 0
v -30 -154 0
v -28 -154 0
v -30 -156 0
v -32 -156 0
v -32 -154 0
v -30 -154 0
v -32 -156 0
v -34 -156 0
v -34 -154 0
v -32 -154 0
v -34 -156 0
v -36 -156 0
v -36 -154 0
v -34 -154 0
v -48 -156 0
v -50 -156 0
v -50 -154 0
v -48 -154 0
v -50 -156 0
v -52 -156 0
v -52 -154 0
v -50 -154 0
v -52 -156 0
v -54 -156 0
v -54 -154 0
v -52 -154 0
v -26 -158 0
v -28 -158 0
v -28 -156 0
v -26 -156 0
v -28 -158 0
v -30 -158 0
v -30 -156 0
v -28 -156 0
v -30 -158 0
v -32 -158 0
v -32 -156 0
v -30 -156 0
v -50 -158 0
v -52 -158 0
v -52 -156 0
v -50 -156 0
v -52 -158 0
v -54 -158 0
v -54 -156 0
v -52 -156 0
v -26 -160 0
v -28 -160 0
v -28 -158 0
v -26 -158 0
v -28 -160 0
v -30 -160 0
v -30 -158 0
v -28 -158 0
v -50 -160 0
v -52 -160 0
v -52 -158 0
v -50 -158 0
v -52 -160 0
v -54 -160 0
v -54 -158 0
v -52 -158 0
v -26 -162 0
v -28 -162 0
v -28 -160 0
v -26 -160 0
v -28 -162 0
v -30 -162 0
v -30 -160 0
v -28 -160 0
v -50 -162 0
v -52 -162 0
v -52 -160 0
v -50 -160 0
v -52 -162 0
v -54 -162 0
v -54 -160 0
v -52 -160 0
v -26 -164 0
v -28 -164 0
v -28 -162 0
v -26 -162 0
v -28 -164 0
v -30 -164 0
v -30 -162 0
v -28 -162 0
v -50 -164 0
v -52 -164 0
v -52 -162 0
v -50 -162 0
v -52 -164 0
v -54 -164 0
v -54 -162 0
v -52 -162 0
v -54 -164 0
v -56 -164 0
v -56 -162 0
v -54 -162 0
v -16 -166 0
v -18 -166 0
v -18 -164 0
v -16 -164 0
v -18 -166 0
v -20 -166 0
v -20 -164 0
v -18 -164 0
v -20 -166 0
v -22 -166 0
v -22 -164 0
v -20 -164 0
v -22 -166 0
v -24 -166 0
v -24 -164 0
v -22 -164 0
v -24 -166 0
v -26 -166 0
v -26 -164 0
v -24 -164 0
v -26 -166 0
v -28 -166 0
v -28 -164 0
v -26 -164 0
v -28 -166 0
v -30 -166 0
v -30 -164 0
v -28 -164 0
v -50 -166 0
v -52 -166 0
v -52 -164 0
v -50 -164 0
v -52 -166 0
v -54 -166 0
v -54 -164 0
v -52 -164 0
v -54 -166 0
v -56 -166 0
v -56 -164 0
v -54 -164 0
v -56 -166 0
v -58 -166 0
v -58 -164 0
v -56 -164 0
v -16 -168 0
v -18 -168 0
v -18 -166 0
v -16 -166 0
v -18 -168 0
v -20 -168 0
v -20 -166 0
v -18 -166 0
v -20 -168 0
v -22 -168 0
v -22 -166 0
v -20 -166 0
v -22 -168 0
v -24 -168 0
v -24 -166 0
v -22 -166 0
v -24 -168 0
v -26 -168 0
v -26 -166 0
v -24 -166 0
v -26 -168 0
v -28 -168 0
v -28 -166 0
v -26 -166 0
v -52 -168 0
v -54 -168 0
v -54 -166 0
v -52 -166 0
v -54 -168 0
v -56 -168 0
v -56 -166 0
v -54 -166 0
v -56 -168 0
v -58 -168 0
v -58 -166 0
v -56 -166 0
v -58 -168 0
v -60 -168 0
v -60 -166 0
v -58 -166 0
v -16 -170 0
v -18 -170 0
v -18 -168 0
v -16 -168 0
v -18 -170 0
v -20 -170 0
v -20 -168 0
v -18 -168 0
v -54 -170 0
v -56 -170 0
v -56 -168 0
v -54 -168 0
v -56 -170 0
v -58 -170 0
v -58 -168 0
v -56 -168 0
v -58 -170 0
v -60 -170 0
v -60 -168 0
v -58 -168 0
v -16 -172 0
v -18 -172 0
v -18 -170 0
v -16 -170 0
v -18 -172 0
v -20 -172 0
v -20 -170 0
v -18 -170 0
v -56 -172 0
v -58 -172 0
v -58 -170 0
v -56 -170 0
v -58 -172 0
v -60 -172 0
v -60 -170 0
v -58 -170 0
v -16 -174 0
v -18 -174 0
v -18 -172 0
v -16 -172 0
v -18 -174 0
v -20 -174 0
v -20 -172 0
v -18 -172 0
v -56 -174 0
v -58 -174 0
v -58 -172 0
v -56 -172 0
v -58 -174 0
v -60 -174 0
v -60 -172 0
v -58 -172 0
v -16 -176 0
v -18 -176 0
v -18 -174 0
v -16 -174 0
v -18 -176 0
v -20 -176 0
v -20 -174 0
v -18 -174 0
v -56 -176 0
v -58 -176 0
v -58 -174 0
v -56 -174 0
v -58 -176 0
v -60 -176 0
v -60 -174 0
v -58 -174 0
v -16 -178 0
v -18 -178 0
v -18 -176 0
v -16 -176 0
v -18 -178 0
v -20 -178 0
v -20 -176 0
v -18 -176 0
v -56 -178 0
v -58 -178 0
v -58 -176 0
v -56 -176 0
v -58 -178 0
v -60 -178 0
v -60 -176 0
v -58 -176 0
v -16 -180 0
v -18 -180 0
v -18 -178 0
v -16 -178 0
v -18 -180 0
v -20 -180 0
v -20 -178 0
v -18 -178 0
v -56 -180 0
v -58 -180 0
v -58 -178 0
v -56 -178 0
v -58 -180 0
v -60 -180 0
v -60 -178 0
v -58 -178 0
v -16 -182 0
v -18 -182 0
v -18 -180 0
v -16 -180 0
v -18 -182 0
v -20 -182 0
v -20 -180 0
v -18 -180 0
v -20 -182 0
v -22 -182 0
v -22 -180 0
v -20 -180 0
v -22 -182 0
v -24 -182 0
v -24 -180 0
v -22 -180 0
v -24 -182 0
v -26 -182 0
v -26 -180 0
v -24 -180 0
v -26 -182 0
v -28 -182 0
v -28 -180 0
v -26 -180 0
v -28 -182 0
v -30 -182 0
v -30 -180 0
v -28 -180 0
v -30 -182 0
v -32 -182 0
v -32 -180 0
v -30 -180 0
v -32 -182 0
v -34 -182 0
v -34 -180 0
v -32 -180 0
v -34 -182 0
v -36 -182 0
v -36 -180 0
v -34 -180 0
v -56 -182 0
v -58 -182 0
v -58 -180 0
v -56 -180 0
v -58 -182 0
v -60 -182 0
v -60 -180 0
v -58 -180 0
v -16 -184 0
v -18 -184 0
v -18 -182 0
v -16 -182 0
v -18 -184 0
v -20 -184 0
v -20 -182 0
v -18 -182 0
v -20 -184 0
v -22 -184 0
v -22 -182 0
v -20 -182 0
v -22 -184 0
v -24 -184 0
v -24 -182 0
v -22 -182 0
v -24 -184 0
v -26 -184 0
v -26 -182 0
v -24 -182 0
v -26 -184 0
v -28 -184 0
v -28 -182 0
v -26 -182 0
v -28 -184 0
v -30 -184 0
v -30 -182 0
v -28 -182 0
v -30 -184 0
v -32 -184 0
v -32 -182 0
v -30 -182 0
v -32 -184 0
v -34 -184 0
v -34 -182 0
v -32 -182 0
v -34 -184 0
v -36 -184 0
v -36 -182 0
v -34 -182 0
v -56 -184 0
v -58 -184 0
v -58 -182 0
v -56 -182 0
v -58 -184 0
v -60 -184 0
v -60 -182 0
v -58 -182 0
v -30 -186 0
v -32 -186 0
v -32 -184 0
v -30 -184 0
v -32 -186 0
v -34 -186 0
v -34 -184 0
v -32 -184 0
v -56 -186 0
v -58 -186 0
v -58 -184 0
v -56 -184 0
v -58 -186 0
v -60 -186 0
v -60 -184 0
v -58 -184 0
v -30 -188 0
v -32 -188 0
v -32 -186 0
v -30 -186 0
v -32 -188 0
v -34 -188 0
v -34 -186 0
v -32 -186 0
v -56 -188 0
v -58 -188 0
v -58 -186 0
v -56 -186 0
v -58 -188 0
v -60 -188 0
v -60 -186 0
v -58 -186 0
v -30 -190 0
v -32 -190 0
v -32 -188 0
v -30 -188 0
v -32 -190 0
v -34 -190 0
v -34 -188 0
v -32 -188 0
v -56 -190 0
v -58 -190 0
v -58 -188 0
v -56 -188 0
v -58 -190 0
v -60 -190 0
v -60 -188 0
v -58 -188 0
v -30 -192 0
v -32 -192 0
v -32 -190 0
v -30 -190 0
v -32 -192 0
v -34 -192 0
v -34 -190 0
v -32 -190 0
v -56 -192 0
v -58 -192 0
v -58 -190 0
v -56 -190 0
v -58 -192 0
v -60 -192 0
v -60 -190 0
v -58 -190 0
v -30 -194 0
v -32 -194 0
v -32 -192 0
v -30 -192 0
v -32 -194 0
v -34 -194 0
v -34 -192 0
v -32 -192 0
v -56 -194 0
v -58 -194 0
v -58 -192 0
v -56 -192 0
v -58 -194 0
v -60 -194 0
v -60 -192 0
v -58 -192 0
v -30 -196 0
v -32 -196 0
v -32 -194 0
v -30 -194 0
v -32 -196 0
v -34 -196 0
v -34 -194 0
v -32 -194 0
v -54 -196 0
v -56 -196 0
v -56 -194 0
v -54 -194 0
v -56 -196 0
v -58 -196 0
v -58 -194 0
v -56 -194 0
v -58 -196 0
v -60 -196 0
v -60 -194 0
v -58 -194 0
v -30 -198 0
v -32 -198 0
v -32 -196 0
v -30 -196 0
v -32 -198 0
v -34 -198 0
v -34 -196 0
v -32 -196 0
v -54 -198 0
v -56 -198 0
v -56 -196 0
v -54 -196 0
v -56 -198 0
v -58 -198 0
v -58 -196 0
v -56 -196 0
v -58 -198 0
v -60 -198 0
v -60 -196 0
v -58 -196 0
v -30 -200 0
v -32 -200 0
v -32 -198 0
v -30 -198 0
v -32 -200 0
v -34 -200 0
v -34 -198 0
v -32 -198 0
v -34 -200 0
v -36 -200 0
v -36 -198 0
v -34 -198 0
v -36 -200 0
v -38 -200 0
v -38 -198 0
v -36 -198 0
v -38 -200 0
v -40 -200 0
v -40 -198 0
v -38 -198 0
v -40 -200 0
v -42 -200 0
v -42 -198 0
v -40 -198 0
v -42 -200 0
v -44 -200 0
v -44 -198 0
v -42 -198 0
v -44 -200 0
v -46 -200 0
v -46 -198 0
v -44 -198 0
v -46 -200 0
v -48 -200 0
v -48 -198 0
v -46 -198 0
v -48 -200 0
v -50 -200 0
v -50 -198 0
v -48 -198 0
v -50 -200 0
v -52 -200 0
v -52 -198 0
v -50 -198 0
v -52 -200 0
v -54 -200 0
v -54 -198 0
v -52 -198 0
v -54 -200 0
v -56 -200 0
v -56 -198 0
v -54 -198 0
v -56 -200 0
v -58 -200 0
v -58 -198 0
v -56 -198 0

# Texture cooridinates (Count = 22)
vt 0.6 0.3333333
vt 0.8 0.3333333
vt 0.8 0.6666666
vt 0.6 0.6666666
vt 0 0.3333333
vt 0.2 0.3333333
vt 0.2 0.6666666
vt 0 0.6666666
vt 0.6 0
vt 0.8 0
vt 0.4 0.3333333
vt 0.4 0.6666666
vt 1 0.3333333
vt 1 0.6666666
vt 0 0
vt 0.2 0
vt 1 1
vt 0.8 1
vt 0.6 1
vt 0.4 1
vt 0.4 0
vt 1 0

# Normal
vn 0 0 -1

# Mesh description
g Map_mesh_0007

# Faces
f 1/1/1 2/2/1 3/3/1 4/4/1
f 5/1/1 6/2/1 7/3/1 8/4/1
f 9/1/1 10/2/1 11/3/1 12/4/1
f 13/1/1 14/2/1 15/3/1 16/4/1
f 17/1/1 18/2/1 19/3/1 20/4/1
f 21/1/1 22/2/1 23/3/1 24/4/1
f 25/1/1 26/2/1 27/3/1 28/4/1
f 29/1/1 30/2/1 31/3/1 32/4/1
f 33/1/1 34/2/1 35/3/1 36/4/1
f 37/1/1 38/2/1 39/3/1 40/4/1
f 41/1/1 42/2/1 43/3/1 44/4/1
f 45/1/1 46/2/1 47/3/1 48/4/1
f 49/1/1 50/2/1 51/3/1 52/4/1
f 53/5/1 54/6/1 55/7/1 56/8/1
f 57/9/1 58/10/1 59/2/1 60/1/1
f 61/9/1 62/10/1 63/2/1 64/1/1
f 65/9/1 66/10/1 67/2/1 68/1/1
f 69/9/1 70/10/1 71/2/1 72/1/1
f 73/9/1 74/10/1 75/2/1 76/1/1
f 77/9/1 78/10/1 79/2/1 80/1/1
f 81/9/1 82/10/1 83/2/1 84/1/1
f 85/9/1 86/10/1 87/2/1 88/1/1
f 89/6/1 90/11/1 91/12/1 92/7/1
f 93/1/1 94/2/1 95/3/1 96/4/1
f 97/1/1 98/2/1 99/3/1 100/4/1
f 101/2/1 102/13/1 103/14/1 104/3/1
f 105/11/1 106/1/1 107/4/1 108/12/1
f 109/1/1 110/2/1 111/3/1 112/4/1
f 113/1/1 114/2/1 115/3/1 116/4/1
f 117/2/1 118/13/1 119/14/1 120/3/1
f 121/11/1 122/1/1 123/4/1 124/12/1
f 125/1/1 126/2/1 127/3/1 128/4/1
f 129/1/1 130/2/1 131/3/1 132/4/1
f 133/2/1 134/13/1 135/14/1 136/3/1
f 137/11/1 138/1/1 139/4/1 140/12/1
f 141/1/1 142/2/1 143/3/1 144/4/1
f 145/1/1 146/2/1 147/3/1 148/4/1
f 149/2/1 150/13/1 151/14/1 152/3/1
f 153/11/1 154/1/1 155/4/1 156/12/1
f 157/1/1 158/2/1 159/3/1 160/4/1
f 161/1/1 162/2/1 163/3/1 164/4/1
f 165/2/1 166/13/1 167/14/1 168/3/1
f 169/11/1 170/1/1 171/4/1 172/12/1
f 173/1/1 174/2/1 175/3/1 176/4/1
f 177/1/1 178/2/1 179/3/1 180/4/1
f 181/2/1 182/13/1 183/14/1 184/3/1
f 185/11/1 186/1/1 187/4/1 188/12/1
f 189/1/1 190/2/1 191/3/1 192/4/1
f 193/1/1 194/2/1 195/3/1 196/4/1
f 197/2/1 198/13/1 199/14/1 200/3/1
f 201/11/1 202/1/1 203/4/1 204/12/1
f 205/1/1 206/2/1 207/3/1 208/4/1
f 209/1/1 210/2/1 211/3/1 212/4/1
f 213/2/1 214/13/1 215/14/1 216/3/1
f 217/11/1 218/1/1 219/4/1 220/12/1
f 221/1/1 222/2/1 223/3/1 224/4/1
f 225/1/1 226/2/1 227/3/1 228/4/1
f 229/2/1 230/13/1 231/14/1 232/3/1
f 233/11/1 234/1/1 235/4/1 236/12/1
f 237/1/1 238/2/1 239/3/1 240/4/1
f 241/1/1 242/2/1 243/3/1 244/4/1
f 245/15/1 246/16/1 247/6/1 248/5/1
f 249/3/1 250/14/1 251/17/1 252/18/1
f 253/11/1 254/1/1 255/4/1 256/12/1
f 257/1/1 258/2/1 259/3/1 260/4/1
f 261/1/1 262/2/1 263/3/1 264/4/1
f 265/1/1 266/2/1 267/3/1 268/4/1
f 269/1/1 270/2/1 271/3/1 272/4/1
f 273/2/1 274/13/1 275/14/1 276/3/1
f 277/12/1 278/4/1 279/19/1 280/20/1
f 281/16/1 282/21/1 283/11/1 284/6/1
f 285/1/1 286/2/1 287/3/1 288/4/1
f 289/1/1 290/2/1 291/3/1 292/4/1
f 293/1/1 294/2/1 295/3/1 296/4/1
f 297/5/1 298/6/1 299/7/1 300/8/1
f 301/9/1 302/10/1 303/2/1 304/1/1
f 305/10/1 306/22/1 307/13/1 308/2/1
f 309/21/1 310/9/1 311/1/1 312/11/1
f 313/6/1 314/11/1 315/12/1 316/7/1
f 317/1/1 318/2/1 319/3/1 320/4/1
f 321/1/1 322/2/1 323/3/1 324/4/1
f 325/5/1 326/6/1 327/7/1 328/8/1
f 329/10/1 330/22/1 331/13/1 332/2/1
f 333/11/1 334/1/1 335/4/1 336/12/1
f 337/1/1 338/2/1 339/3/1 340/4/1
f 341/1/1 342/2/1 343/3/1 344/4/1
f 345/2/1 346/13/1 347/14/1 348/3/1
f 349/11/1 350/1/1 351/4/1 352/12/1
f 353/1/1 354/2/1 355/3/1 356/4/1
f 357/1/1 358/2/1 359/3/1 360/4/1
f 361/2/1 362/13/1 363/14/1 364/3/1
f 365/11/1 366/1/1 367/4/1 368/12/1
f 369/1/1 370/2/1 371/3/1 372/4/1
f 373/1/1 374/2/1 375/3/1 376/4/1
f 377/2/1 378/13/1 379/14/1 380/3/1
f 381/11/1 382/1/1 383/4/1 384/12/1
f 385/1/1 386/2/1 387/3/1 388/4/1
f 389/1/1 390/2/1 391/3/1 392/4/1
f 393/1/1 394/2/1 395/3/1 396/4/1
f 397/1/1 398/2/1 399/3/1 400/4/1
f 401/1/1 402/2/1 403/3/1 404/4/1
f 405/1/1 406/2/1 407/3/1 408/4/1
f 409/1/1 410/2/1 411/3/1 412/4/1
f 413/5/1 414/6/1 415/7/1 416/8/1
f 417/10/1 418/22/1 419/13/1 420/2/1
f 421/21/1 422/9/1 423/1/1 424/11/1
f 425/6/1 426/11/1 427/12/1 428/7/1
f 429/1/1 430/2/1 431/3/1 432/4/1
f 433/1/1 434/2/1 435/3/1 436/4/1
f 437/1/1 438/2/1 439/3/1 440/4/1
f 441/5/1 442/6/1 443/7/1 444/8/1
f 445/9/1 446/10/1 447/2/1 448/1/1
f 449/9/1 450/10/1 451/2/1 452/1/1
f 453/9/1 454/10/1 455/2/1 456/1/1
f 457/10/1 458/22/1 459/13/1 460/2/1
f 461/21/1 462/9/1 463/1/1 464/11/1
f 465/6/1 466/11/1 467/12/1 468/7/1
f 469/1/1 470/2/1 471/3/1 472/4/1
f 473/1/1 474/2/1 475/3/1 476/4/1
f 477/1/1 478/2/1 479/3/1 480/4/1
f 481/2/1 482/13/1 483/14/1 484/3/1
f 485/21/1 486/9/1 487/1/1 488/11/1
f 489/6/1 490/11/1 491/12/1 492/7/1
f 493/1/1 494/2/1 495/3/1 496/4/1
f 497/1/1 498/2/1 499/3/1 500/4/1
f 501/2/1 502/13/1 503/14/1 504/3/1
f 505/11/1 506/1/1 507/4/1 508/12/1
f 509/1/1 510/2/1 511/3/1 512/4/1
f 513/1/1 514/2/1 515/3/1 516/4/1
f 517/2/1 518/13/1 519/14/1 520/3/1
f 521/11/1 522/1/1 523/4/1 524/12/1
f 525/1/1 526/2/1 527/3/1 528/4/1
f 529/1/1 530/2/1 531/3/1 532/4/1
f 533/2/1 534/13/1 535/14/1 536/3/1
f 537/11/1 538/1/1 539/4/1 540/12/1
f 541/1/1 542/2/1 543/3/1 544/4/1
f 545/1/1 546/2/1 547/3/1 548/4/1
f 549/2/1 550/13/1 551/14/1 552/3/1
f 553/11/1 554/1/1 555/4/1 556/12/1
f 557/1/1 558/2/1 559/3/1 560/4/1
f 561/1/1 562/2/1 563/3/1 564/4/1
f 565/2/1 566/13/1 567/14/1 568/3/1
f 569/11/1 570/1/1 571/4/1 572/12/1
f 573/1/1 574/2/1 575/3/1 576/4/1
f 577/1/1 578/2/1 579/3/1 580/4/1
f 581/15/1 582/16/1 583/6/1 584/5/1
f 585/4/1 586/3/1 587/18/1 588/19/1
f 589/4/1 590/3/1 591/18/1 592/19/1
f 593/4/1 594/3/1 595/18/1 596/19/1
f 597/4/1 598/3/1 599/18/1 600/19/1
f 601/4/1 602/3/1 603/18/1 604/19/1
f 605/4/1 606/3/1 607/18/1 608/19/1
f 609/4/1 610/3/1 611/18/1 612/19/1
f 613/3/1 614/14/1 615/17/1 616/18/1
f 617/11/1 618/1/1 619/4/1 620/12/1
f 621/1/1 622/2/1 623/3/1 624/4/1
f 625/1/1 626/2/1 627/3/1 628/4/1
f 629/1/1 630/2/1 631/3/1 632/4/1
f 633/1/1 634/2/1 635/3/1 636/4/1
f 637/1/1 638/2/1 639/3/1 640/4/1
f 641/1/1 642/2/1 643/3/1 644/4/1
f 645/1/1 646/2/1 647/3/1 648/4/1
f 649/1/1 650/2/1 651/3/1 652/4/1
f 653/1/1 654/2/1 655/3/1 656/4/1
f 657/5/1 658/6/1 659/7/1 660/8/1
f 661/10/1 662/22/1 663/13/1 664/2/1
f 665/11/1 666/1/1 667/4/1 668/12/1
f 669/1/1 670/2/1 671/3/1 672/4/1
f 673/1/1 674/2/1 675/3/1 676/4/1
f 677/2/1 678/13/1 679/14/1 680/3/1
f 681/11/1 682/1/1 683/4/1 684/12/1
f 685/1/1 686/2/1 687/3/1 688/4/1
f 689/1/1 690/2/1 691/3/1 692/4/1
f 693/2/1 694/13/1 695/14/1 696/3/1
f 697/11/1 698/1/1 699/4/1 700/12/1
f 701/1/1 702/2/1 703/3/1 704/4/1
f 705/1/1 706/2/1 707/3/1 708/4/1
f 709/2/1 710/13/1 711/14/1 712/3/1
f 713/11/1 714/1/1 715/4/1 716/12/1
f 717/1/1 718/2/1 719/3/1 720/4/1
f 721/1/1 722/2/1 723/3/1 724/4/1
f 725/2/1 726/13/1 727/14/1 728/3/1
f 729/11/1 730/1/1 731/4/1 732/12/1
f 733/1/1 734/2/1 735/3/1 736/4/1
f 737/1/1 738/2/1 739/3/1 740/4/1
f 741/2/1 742/13/1 743/14/1 744/3/1
f 745/11/1 746/1/1 747/4/1 748/12/1
f 749/1/1 750/2/1 751/3/1 752/4/1
f 753/1/1 754/2/1 755/3/1 756/4/1
f 757/2/1 758/13/1 759/14/1 760/3/1
f 761/12/1 762/4/1 763/19/1 764/20/1
f 765/16/1 766/21/1 767/11/1 768/6/1
f 769/1/1 770/2/1 771/3/1 772/4/1
f 773/1/1 774/2/1 775/3/1 776/4/1
f 777/2/1 778/13/1 779/14/1 780/3/1
f 781/11/1 782/1/1 783/4/1 784/12/1
f 785/1/1 786/2/1 787/3/1 788/4/1
f 789/1/1 790/2/1 791/3/1 792/4/1
f 793/1/1 794/2/1 795/3/1 796/4/1
f 797/15/1 798/16/1 799/6/1 800/5/1
f 801/4/1 802/3/1 803/18/1 804/19/1
f 805/4/1 806/3/1 807/18/1 808/19/1
f 809/4/1 810/3/1 811/18/1 812/19/1
f 813/4/1 814/3/1 815/18/1 816/19/1
f 817/4/1 818/3/1 819/18/1 820/19/1
f 821/4/1 822/3/1 823/18/1 824/19/1
f 825/4/1 826/3/1 827/18/1 828/19/1
f 829/4/1 830/3/1 831/18/1 832/19/1
f 833/4/1 834/3/1 835/18/1 836/19/1
f 837/4/1 838/3/1 839/18/1 840/19/1
f 841/16/1 842/21/1 843/11/1 844/6/1
f 845/1/1 846/2/1 847/3/1 848/4/1

