# Tiled2Unity generated file. Do not modify by hand.
# Wavefront file for 'Map_mesh_0003.obj'

# Vertices (Count = 636)
v -28 -84 0
v -30 -84 0
v -30 -82 0
v -28 -82 0
v -30 -84 0
v -32 -84 0
v -32 -82 0
v -30 -82 0
v -32 -84 0
v -34 -84 0
v -34 -82 0
v -32 -82 0
v -28 -86 0
v -30 -86 0
v -30 -84 0
v -28 -84 0
v -30 -86 0
v -32 -86 0
v -32 -84 0
v -30 -84 0
v -32 -86 0
v -34 -86 0
v -34 -84 0
v -32 -84 0
v -46 -86 0
v -48 -86 0
v -48 -84 0
v -46 -84 0
v -48 -86 0
v -50 -86 0
v -50 -84 0
v -48 -84 0
v -50 -86 0
v -52 -86 0
v -52 -84 0
v -50 -84 0
v -28 -88 0
v -30 -88 0
v -30 -86 0
v -28 -86 0
v -30 -88 0
v -32 -88 0
v -32 -86 0
v -30 -86 0
v -32 -88 0
v -34 -88 0
v -34 -86 0
v -32 -86 0
v -46 -88 0
v -48 -88 0
v -48 -86 0
v -46 -86 0
v -48 -88 0
v -50 -88 0
v -50 -86 0
v -48 -86 0
v -50 -88 0
v -52 -88 0
v -52 -86 0
v -50 -86 0
v -52 -88 0
v -54 -88 0
v -54 -86 0
v -52 -86 0
v -28 -90 0
v -30 -90 0
v -30 -88 0
v -28 -88 0
v -40 -90 0
v -42 -90 0
v -42 -88 0
v -40 -88 0
v -46 -90 0
v -48 -90 0
v -48 -88 0
v -46 -88 0
v -48 -90 0
v -50 -90 0
v -50 -88 0
v -48 -88 0
v -50 -90 0
v -52 -90 0
v -52 -88 0
v -50 -88 0
v -32 -92 0
v -34 -92 0
v -34 -90 0
v -32 -90 0
v -48 -92 0
v -50 -92 0
v -50 -90 0
v -48 -90 0
v -54 -92 0
v -56 -92 0
v -56 -90 0
v -54 -90 0
v -62 -92 0
v -64 -92 0
v -64 -90 0
v -62 -90 0
v -30 -94 0
v -32 -94 0
v -32 -92 0
v -30 -92 0
v -44 -94 0
v -46 -94 0
v -46 -92 0
v -44 -92 0
v -66 -94 0
v -68 -94 0
v -68 -92 0
v -66 -92 0
v -70 -94 0
v -72 -94 0
v -72 -92 0
v -70 -92 0
v -64 -96 0
v -66 -96 0
v -66 -94 0
v -64 -94 0
v -68 -96 0
v -70 -96 0
v -70 -94 0
v -68 -94 0
v -26 -98 0
v -28 -98 0
v -28 -96 0
v -26 -96 0
v -60 -98 0
v -62 -98 0
v -62 -96 0
v -60 -96 0
v -62 -98 0
v -64 -98 0
v -64 -96 0
v -62 -96 0
v -64 -98 0
v -66 -98 0
v -66 -96 0
v -64 -96 0
v -70 -98 0
v -72 -98 0
v -72 -96 0
v -70 -96 0
v -60 -100 0
v -62 -100 0
v -62 -98 0
v -60 -98 0
v -62 -100 0
v -64 -100 0
v -64 -98 0
v -62 -98 0
v -64 -100 0
v -66 -100 0
v -66 -98 0
v -64 -98 0
v -66 -100 0
v -68 -100 0
v -68 -98 0
v -66 -98 0
v -72 -100 0
v -74 -100 0
v -74 -98 0
v -72 -98 0
v -78 -100 0
v -80 -100 0
v -80 -98 0
v -78 -98 0
v -58 -102 0
v -60 -102 0
v -60 -100 0
v -58 -100 0
v -64 -102 0
v -66 -102 0
v -66 -100 0
v -64 -100 0
v -80 -102 0
v -82 -102 0
v -82 -100 0
v -80 -100 0
v -54 -104 0
v -56 -104 0
v -56 -102 0
v -54 -102 0
v -58 -104 0
v -60 -104 0
v -60 -102 0
v -58 -102 0
v -86 -104 0
v -88 -104 0
v -88 -102 0
v -86 -102 0
v -88 -104 0
v -90 -104 0
v -90 -102 0
v -88 -102 0
v -94 -104 0
v -96 -104 0
v -96 -102 0
v -94 -102 0
v -96 -104 0
v -98 -104 0
v -98 -102 0
v -96 -102 0
v -98 -104 0
v -100 -104 0
v -100 -102 0
v -98 -102 0
v -34 -106 0
v -36 -106 0
v -36 -104 0
v -34 -104 0
v -70 -106 0
v -72 -106 0
v -72 -104 0
v -70 -104 0
v -90 -106 0
v -92 -106 0
v -92 -104 0
v -90 -104 0
v -94 -106 0
v -96 -106 0
v -96 -104 0
v -94 -104 0
v -96 -106 0
v -98 -106 0
v -98 -104 0
v -96 -104 0
v -26 -108 0
v -28 -108 0
v -28 -106 0
v -26 -106 0
v -50 -108 0
v -52 -108 0
v -52 -106 0
v -50 -106 0
v -72 -108 0
v -74 -108 0
v -74 -106 0
v -72 -106 0
v -92 -108 0
v -94 -108 0
v -94 -106 0
v -92 -106 0
v -24 -110 0
v -26 -110 0
v -26 -108 0
v -24 -108 0
v -32 -110 0
v -34 -110 0
v -34 -108 0
v -32 -108 0
v -50 -110 0
v -52 -110 0
v -52 -108 0
v -50 -108 0
v -52 -112 0
v -54 -112 0
v -54 -110 0
v -52 -110 0
v -72 -112 0
v -74 -112 0
v -74 -110 0
v -72 -110 0
v -74 -112 0
v -76 -112 0
v -76 -110 0
v -74 -110 0
v -22 -114 0
v -24 -114 0
v -24 -112 0
v -22 -112 0
v -34 -114 0
v -36 -114 0
v -36 -112 0
v -34 -112 0
v -50 -114 0
v -52 -114 0
v -52 -112 0
v -50 -112 0
v -52 -114 0
v -54 -114 0
v -54 -112 0
v -52 -112 0
v -54 -114 0
v -56 -114 0
v -56 -112 0
v -54 -112 0
v -64 -114 0
v -66 -114 0
v -66 -112 0
v -64 -112 0
v -68 -114 0
v -70 -114 0
v -70 -112 0
v -68 -112 0
v -70 -114 0
v -72 -114 0
v -72 -112 0
v -70 -112 0
v -72 -114 0
v -74 -114 0
v -74 -112 0
v -72 -112 0
v -74 -114 0
v -76 -114 0
v -76 -112 0
v -74 -112 0
v -36 -116 0
v -38 -116 0
v -38 -114 0
v -36 -114 0
v -52 -116 0
v -54 -116 0
v -54 -114 0
v -52 -114 0
v -56 -116 0
v -58 -116 0
v -58 -114 0
v -56 -114 0
v -62 -116 0
v -64 -116 0
v -64 -114 0
v -62 -114 0
v -72 -116 0
v -74 -116 0
v -74 -114 0
v -72 -114 0
v -22 -118 0
v -24 -118 0
v -24 -116 0
v -22 -116 0
v -24 -118 0
v -26 -118 0
v -26 -116 0
v -24 -116 0
v -26 -118 0
v -28 -118 0
v -28 -116 0
v -26 -116 0
v -48 -118 0
v -50 -118 0
v -50 -116 0
v -48 -116 0
v -74 -118 0
v -76 -118 0
v -76 -116 0
v -74 -116 0
v -34 -120 0
v -36 -120 0
v -36 -118 0
v -34 -118 0
v -46 -120 0
v -48 -120 0
v -48 -118 0
v -46 -118 0
v -76 -122 0
v -78 -122 0
v -78 -120 0
v -76 -120 0
v -80 -122 0
v -82 -122 0
v -82 -120 0
v -80 -120 0
v -82 -122 0
v -84 -122 0
v -84 -120 0
v -82 -120 0
v -26 -124 0
v -28 -124 0
v -28 -122 0
v -26 -122 0
v -76 -124 0
v -78 -124 0
v -78 -122 0
v -76 -122 0
v -80 -124 0
v -82 -124 0
v -82 -122 0
v -80 -122 0
v -82 -124 0
v -84 -124 0
v -84 -122 0
v -82 -122 0
v -84 -124 0
v -86 -124 0
v -86 -122 0
v -84 -122 0
v -74 -126 0
v -76 -126 0
v -76 -124 0
v -74 -124 0
v -84 -126 0
v -86 -126 0
v -86 -124 0
v -84 -124 0
v -18 -128 0
v -20 -128 0
v -20 -126 0
v -18 -126 0
v -74 -128 0
v -76 -128 0
v -76 -126 0
v -74 -126 0
v -78 -128 0
v -80 -128 0
v -80 -126 0
v -78 -126 0
v -80 -128 0
v -82 -128 0
v -82 -126 0
v -80 -126 0
v -86 -128 0
v -88 -128 0
v -88 -126 0
v -86 -126 0
v -18 -130 0
v -20 -130 0
v -20 -128 0
v -18 -128 0
v -20 -130 0
v -22 -130 0
v -22 -128 0
v -20 -128 0
v -38 -130 0
v -40 -130 0
v -40 -128 0
v -38 -128 0
v -78 -130 0
v -80 -130 0
v -80 -128 0
v -78 -128 0
v -80 -130 0
v -82 -130 0
v -82 -128 0
v -80 -128 0
v -84 -130 0
v -86 -130 0
v -86 -128 0
v -84 -128 0
v -20 -132 0
v -22 -132 0
v -22 -130 0
v -20 -130 0
v -84 -132 0
v -86 -132 0
v -86 -130 0
v -84 -130 0
v -78 -134 0
v -80 -134 0
v -80 -132 0
v -78 -132 0
v -80 -134 0
v -82 -134 0
v -82 -132 0
v -80 -132 0
v -22 -136 0
v -24 -136 0
v -24 -134 0
v -22 -134 0
v -24 -140 0
v -26 -140 0
v -26 -138 0
v -24 -138 0
v -26 -144 0
v -28 -144 0
v -28 -142 0
v -26 -142 0
v -44 -144 0
v -46 -144 0
v -46 -142 0
v -44 -142 0
v -24 -146 0
v -26 -146 0
v -26 -144 0
v -24 -144 0
v -26 -146 0
v -28 -146 0
v -28 -144 0
v -26 -144 0
v -36 -146 0
v -38 -146 0
v -38 -144 0
v -36 -144 0
v -38 -146 0
v -40 -146 0
v -40 -144 0
v -38 -144 0
v -42 -146 0
v -44 -146 0
v -44 -144 0
v -42 -144 0
v -44 -146 0
v -46 -146 0
v -46 -144 0
v -44 -144 0
v -46 -146 0
v -48 -146 0
v -48 -144 0
v -46 -144 0
v -38 -148 0
v -40 -148 0
v -40 -146 0
v -38 -146 0
v -26 -150 0
v -28 -150 0
v -28 -148 0
v -26 -148 0
v -28 -150 0
v -30 -150 0
v -30 -148 0
v -28 -148 0
v -38 -160 0
v -40 -160 0
v -40 -158 0
v -38 -158 0
v -40 -162 0
v -42 -162 0
v -42 -160 0
v -40 -160 0
v -42 -162 0
v -44 -162 0
v -44 -160 0
v -42 -160 0
v -34 -164 0
v -36 -164 0
v -36 -162 0
v -34 -162 0
v -40 -164 0
v -42 -164 0
v -42 -162 0
v -40 -162 0
v -42 -164 0
v -44 -164 0
v -44 -162 0
v -42 -162 0
v -34 -166 0
v -36 -166 0
v -36 -164 0
v -34 -164 0
v -40 -166 0
v -42 -166 0
v -42 -164 0
v -40 -164 0
v -42 -166 0
v -44 -166 0
v -44 -164 0
v -42 -164 0
v -36 -168 0
v -38 -168 0
v -38 -166 0
v -36 -166 0
v -44 -168 0
v -46 -168 0
v -46 -166 0
v -44 -166 0
v -34 -170 0
v -36 -170 0
v -36 -168 0
v -34 -168 0
v -36 -170 0
v -38 -170 0
v -38 -168 0
v -36 -168 0
v -38 -170 0
v -40 -170 0
v -40 -168 0
v -38 -168 0
v -32 -172 0
v -34 -172 0
v -34 -170 0
v -32 -170 0
v -38 -172 0
v -40 -172 0
v -40 -170 0
v -38 -170 0
v -26 -174 0
v -28 -174 0
v -28 -172 0
v -26 -172 0
v -26 -176 0
v -28 -176 0
v -28 -174 0
v -26 -174 0
v -30 -176 0
v -32 -176 0
v -32 -174 0
v -30 -174 0
v -46 -178 0
v -48 -178 0
v -48 -176 0
v -46 -176 0
v -50 -178 0
v -52 -178 0
v -52 -176 0
v -50 -176 0
v -42 -182 0
v -44 -182 0
v -44 -180 0
v -42 -180 0
v -42 -184 0
v -44 -184 0
v -44 -182 0
v -42 -182 0
v -44 -186 0
v -46 -186 0
v -46 -184 0
v -44 -184 0
v -50 -186 0
v -52 -186 0
v -52 -184 0
v -50 -184 0
v -40 -188 0
v -42 -188 0
v -42 -186 0
v -40 -186 0
v -40 -190 0
v -42 -190 0
v -42 -188 0
v -40 -188 0
v -40 -192 0
v -42 -192 0
v -42 -190 0
v -40 -190 0
v -48 -192 0
v -50 -192 0
v -50 -190 0
v -48 -190 0
v -38 -194 0
v -40 -194 0
v -40 -192 0
v -38 -192 0
v -48 -196 0
v -50 -196 0
v -50 -194 0
v -48 -194 0

# Texture cooridinates (Count = 102)
vt 0.125 0.8055556
vt 0.15 0.8055556
vt 0.15 0.8333333
vt 0.125 0.8333333
vt 0.175 0.8055556
vt 0.175 0.8333333
vt 0.2 0.8055556
vt 0.2 0.8333333
vt 0.125 0.7777778
vt 0.15 0.7777778
vt 0.05 0
vt 0.075 0
vt 0.075 0.02777779
vt 0.05 0.02777779
vt 0.175 0.7777778
vt 0.2 0.7777778
vt 0.125 0.75
vt 0.15 0.75
vt 0.175 0.75
vt 0.2 0.75
vt 0.05 0.9722222
vt 0.075 0.9722222
vt 0.075 1
vt 0.05 1
vt 0.025 0.75
vt 0.05 0.75
vt 0.05 0.7777778
vt 0.025 0.7777778
vt 0.05 0.6388889
vt 0.075 0.6388889
vt 0.075 0.6666666
vt 0.05 0.6666666
vt 0.25 0.8333333
vt 0.275 0.8333333
vt 0.275 0.8611111
vt 0.25 0.8611111
vt 0.1 0.9722222
vt 0.1 1
vt 0.1 0.6388889
vt 0.1 0.6666666
vt 0.3 0.6944444
vt 0.325 0.6944444
vt 0.325 0.7222222
vt 0.3 0.7222222
vt 0.125 0.9722222
vt 0.15 0.9722222
vt 0.15 1
vt 0.125 1
vt 0.1 0.9444444
vt 0.125 0.9444444
vt 0.15 0.9444444
vt 0.35 0.6944444
vt 0.375 0.6944444
vt 0.375 0.7222222
vt 0.35 0.7222222
vt 0.1 0.9166667
vt 0.125 0.9166667
vt 0.15 0.9166667
vt 0.275 0.7777778
vt 0.3 0.7777778
vt 0.3 0.8055556
vt 0.275 0.8055556
vt 0.325 0.7777778
vt 0.325 0.8055556
vt 0.275 0.75
vt 0.3 0.75
vt 0.325 0.75
vt 0.225 0.8333333
vt 0.225 0.8611111
vt 0.175 0.8611111
vt 0.15 0.8611111
vt 0.1 0.6944444
vt 0.075 0.6944444
vt 0 0.75
vt 0 0.7777778
vt 0.2 0.8611111
vt 0.025 0.9722222
vt 0.025 1
vt 0.075 0.8333333
vt 0.1 0.8333333
vt 0.1 0.8611111
vt 0.075 0.8611111
vt 0.125 0.8611111
vt 0.775 0.8888889
vt 0.8 0.8888889
vt 0.8 0.9166667
vt 0.775 0.9166667
vt 0.825 0.8888889
vt 0.825 0.9166667
vt 0.775 0.8611111
vt 0.8 0.8611111
vt 0.825 0.8611111
vt 0.1 0.5
vt 0.125 0.5
vt 0.125 0.5277778
vt 0.1 0.5277778
vt 0.025 0.4444444
vt 0.05 0.4444444
vt 0.05 0.4722222
vt 0.025 0.4722222
vt 0 0.4444444
vt 0 0.4722222

# Normal
vn 0 0 -1

# Mesh description
g Map_mesh_0003

# Faces
f 1/1/1 2/2/1 3/3/1 4/4/1
f 5/2/1 6/5/1 7/6/1 8/3/1
f 9/5/1 10/7/1 11/8/1 12/6/1
f 13/9/1 14/10/1 15/2/1 16/1/1
f 17/11/1 18/12/1 19/13/1 20/14/1
f 21/15/1 22/16/1 23/7/1 24/5/1
f 25/1/1 26/2/1 27/3/1 28/4/1
f 29/2/1 30/5/1 31/6/1 32/3/1
f 33/5/1 34/7/1 35/8/1 36/6/1
f 37/17/1 38/18/1 39/10/1 40/9/1
f 41/18/1 42/19/1 43/15/1 44/10/1
f 45/19/1 46/20/1 47/16/1 48/15/1
f 49/9/1 50/10/1 51/2/1 52/1/1
f 53/10/1 54/15/1 55/5/1 56/2/1
f 57/15/1 58/16/1 59/7/1 60/5/1
f 61/21/1 62/22/1 63/23/1 64/24/1
f 65/25/1 66/26/1 67/27/1 68/28/1
f 69/29/1 70/30/1 71/31/1 72/32/1
f 73/17/1 74/18/1 75/10/1 76/9/1
f 77/18/1 78/19/1 79/15/1 80/10/1
f 81/19/1 82/20/1 83/16/1 84/15/1
f 85/33/1 86/34/1 87/35/1 88/36/1
f 89/29/1 90/30/1 91/31/1 92/32/1
f 93/29/1 94/30/1 95/31/1 96/32/1
f 97/22/1 98/37/1 99/38/1 100/23/1
f 101/29/1 102/30/1 103/31/1 104/32/1
f 105/30/1 106/39/1 107/40/1 108/31/1
f 109/41/1 110/42/1 111/43/1 112/44/1
f 113/45/1 114/46/1 115/47/1 116/48/1
f 117/29/1 118/30/1 119/31/1 120/32/1
f 121/21/1 122/22/1 123/23/1 124/24/1
f 125/29/1 126/30/1 127/31/1 128/32/1
f 129/29/1 130/30/1 131/31/1 132/32/1
f 133/49/1 134/50/1 135/45/1 136/37/1
f 137/50/1 138/51/1 139/46/1 140/45/1
f 141/52/1 142/53/1 143/54/1 144/55/1
f 145/30/1 146/39/1 147/40/1 148/31/1
f 149/56/1 150/57/1 151/50/1 152/49/1
f 153/57/1 154/58/1 155/51/1 156/50/1
f 157/30/1 158/39/1 159/40/1 160/31/1
f 161/37/1 162/45/1 163/48/1 164/38/1
f 165/22/1 166/37/1 167/38/1 168/23/1
f 169/25/1 170/26/1 171/27/1 172/28/1
f 173/25/1 174/26/1 175/27/1 176/28/1
f 177/21/1 178/22/1 179/23/1 180/24/1
f 181/30/1 182/39/1 183/40/1 184/31/1
f 185/29/1 186/30/1 187/31/1 188/32/1
f 189/52/1 190/53/1 191/54/1 192/55/1
f 193/42/1 194/52/1 195/55/1 196/43/1
f 197/59/1 198/60/1 199/61/1 200/62/1
f 201/60/1 202/63/1 203/64/1 204/61/1
f 205/52/1 206/53/1 207/54/1 208/55/1
f 209/25/1 210/26/1 211/27/1 212/28/1
f 213/25/1 214/26/1 215/27/1 216/28/1
f 217/41/1 218/42/1 219/43/1 220/44/1
f 221/65/1 222/66/1 223/60/1 224/59/1
f 225/66/1 226/67/1 227/63/1 228/60/1
f 229/30/1 230/39/1 231/40/1 232/31/1
f 233/68/1 234/33/1 235/36/1 236/69/1
f 237/29/1 238/30/1 239/31/1 240/32/1
f 241/52/1 242/53/1 243/54/1 244/55/1
f 245/29/1 246/30/1 247/31/1 248/32/1
f 249/33/1 250/34/1 251/35/1 252/36/1
f 253/29/1 254/30/1 255/31/1 256/32/1
f 257/25/1 258/26/1 259/27/1 260/28/1
f 261/29/1 262/30/1 263/31/1 264/32/1
f 265/33/1 266/34/1 267/35/1 268/36/1
f 269/30/1 270/39/1 271/40/1 272/31/1
f 273/3/1 274/6/1 275/70/1 276/71/1
f 277/30/1 278/39/1 279/40/1 280/31/1
f 281/31/1 282/40/1 283/72/1 284/73/1
f 285/29/1 286/30/1 287/31/1 288/32/1
f 289/33/1 290/34/1 291/35/1 292/36/1
f 293/29/1 294/30/1 295/31/1 296/32/1
f 297/25/1 298/26/1 299/27/1 300/28/1
f 301/74/1 302/25/1 303/28/1 304/75/1
f 305/25/1 306/26/1 307/27/1 308/28/1
f 309/25/1 310/26/1 311/27/1 312/28/1
f 313/29/1 314/30/1 315/31/1 316/32/1
f 317/30/1 318/39/1 319/40/1 320/31/1
f 321/6/1 322/8/1 323/76/1 324/70/1
f 325/30/1 326/39/1 327/40/1 328/31/1
f 329/25/1 330/26/1 331/27/1 332/28/1
f 333/77/1 334/21/1 335/24/1 336/78/1
f 337/74/1 338/25/1 339/28/1 340/75/1
f 341/25/1 342/26/1 343/27/1 344/28/1
f 345/25/1 346/26/1 347/27/1 348/28/1
f 349/77/1 350/21/1 351/24/1 352/78/1
f 353/29/1 354/30/1 355/31/1 356/32/1
f 357/29/1 358/30/1 359/31/1 360/32/1
f 361/68/1 362/33/1 363/36/1 364/69/1
f 365/25/1 366/26/1 367/27/1 368/28/1
f 369/29/1 370/30/1 371/31/1 372/32/1
f 373/77/1 374/21/1 375/24/1 376/78/1
f 377/79/1 378/80/1 379/81/1 380/82/1
f 381/80/1 382/4/1 383/83/1 384/81/1
f 385/4/1 386/3/1 387/71/1 388/83/1
f 389/33/1 390/34/1 391/35/1 392/36/1
f 393/25/1 394/26/1 395/27/1 396/28/1
f 397/74/1 398/25/1 399/28/1 400/75/1
f 401/30/1 402/39/1 403/40/1 404/31/1
f 405/84/1 406/85/1 407/86/1 408/87/1
f 409/85/1 410/88/1 411/89/1 412/86/1
f 413/74/1 414/25/1 415/28/1 416/75/1
f 417/30/1 418/39/1 419/40/1 420/31/1
f 421/25/1 422/26/1 423/27/1 424/28/1
f 425/77/1 426/21/1 427/24/1 428/78/1
f 429/90/1 430/91/1 431/85/1 432/84/1
f 433/91/1 434/92/1 435/88/1 436/85/1
f 437/6/1 438/8/1 439/76/1 440/70/1
f 441/29/1 442/30/1 443/31/1 444/32/1
f 445/25/1 446/26/1 447/27/1 448/28/1
f 449/68/1 450/33/1 451/36/1 452/69/1
f 453/29/1 454/30/1 455/31/1 456/32/1
f 457/77/1 458/21/1 459/24/1 460/78/1
f 461/29/1 462/30/1 463/31/1 464/32/1
f 465/30/1 466/39/1 467/40/1 468/31/1
f 469/29/1 470/30/1 471/31/1 472/32/1
f 473/29/1 474/30/1 475/31/1 476/32/1
f 477/74/1 478/25/1 479/28/1 480/75/1
f 481/93/1 482/94/1 483/95/1 484/96/1
f 485/97/1 486/98/1 487/99/1 488/100/1
f 489/101/1 490/97/1 491/100/1 492/102/1
f 493/93/1 494/94/1 495/95/1 496/96/1
f 497/93/1 498/94/1 499/95/1 500/96/1
f 501/77/1 502/21/1 503/24/1 504/78/1
f 505/29/1 506/30/1 507/31/1 508/32/1
f 509/77/1 510/21/1 511/24/1 512/78/1
f 513/29/1 514/30/1 515/31/1 516/32/1
f 517/84/1 518/85/1 519/86/1 520/87/1
f 521/85/1 522/88/1 523/89/1 524/86/1
f 525/25/1 526/26/1 527/27/1 528/28/1
f 529/90/1 530/91/1 531/85/1 532/84/1
f 533/91/1 534/92/1 535/88/1 536/85/1
f 537/29/1 538/30/1 539/31/1 540/32/1
f 541/77/1 542/21/1 543/24/1 544/78/1
f 545/29/1 546/30/1 547/31/1 548/32/1
f 549/31/1 550/40/1 551/72/1 552/73/1
f 553/30/1 554/39/1 555/40/1 556/31/1
f 557/29/1 558/30/1 559/31/1 560/32/1
f 561/25/1 562/26/1 563/27/1 564/28/1
f 565/30/1 566/39/1 567/40/1 568/31/1
f 569/30/1 570/39/1 571/40/1 572/31/1
f 573/8/1 574/68/1 575/69/1 576/76/1
f 577/33/1 578/34/1 579/35/1 580/36/1
f 581/30/1 582/39/1 583/40/1 584/31/1
f 585/29/1 586/30/1 587/31/1 588/32/1
f 589/77/1 590/21/1 591/24/1 592/78/1
f 593/30/1 594/39/1 595/40/1 596/31/1
f 597/29/1 598/30/1 599/31/1 600/32/1
f 601/25/1 602/26/1 603/27/1 604/28/1
f 605/77/1 606/21/1 607/24/1 608/78/1
f 609/3/1 610/6/1 611/70/1 612/71/1
f 613/68/1 614/33/1 615/36/1 616/69/1
f 617/29/1 618/30/1 619/31/1 620/32/1
f 621/74/1 622/25/1 623/28/1 624/75/1
f 625/29/1 626/30/1 627/31/1 628/32/1
f 629/29/1 630/30/1 631/31/1 632/32/1
f 633/25/1 634/26/1 635/27/1 636/28/1

