# Tiled2Unity generated file. Do not modify by hand.
# Wavefront file for 'Map_mesh_0004.obj'

# Vertices (Count = 40)
v -38 -136 0
v -40 -136 0
v -40 -134 0
v -38 -134 0
v -38 -150 0
v -40 -150 0
v -40 -148 0
v -38 -148 0
v -44 -150 0
v -46 -150 0
v -46 -148 0
v -44 -148 0
v -34 -174 0
v -36 -174 0
v -36 -172 0
v -34 -172 0
v -36 -174 0
v -38 -174 0
v -38 -172 0
v -36 -172 0
v -38 -174 0
v -40 -174 0
v -40 -172 0
v -38 -172 0
v -50 -192 0
v -52 -192 0
v -52 -190 0
v -50 -190 0
v -38 -196 0
v -40 -196 0
v -40 -194 0
v -38 -194 0
v -40 -196 0
v -42 -196 0
v -42 -194 0
v -40 -194 0
v -48 -198 0
v -50 -198 0
v -50 -196 0
v -48 -196 0

# Texture cooridinates (Count = 10)
vt 0.15 0.5277778
vt 0.175 0.5277778
vt 0.175 0.5555556
vt 0.15 0.5555556
vt 0.125 0.5277778
vt 0.125 0.5555556
vt 0.125 0.4722222
vt 0.15 0.4722222
vt 0.15 0.5
vt 0.125 0.5

# Normal
vn 0 0 -1

# Mesh description
g Map_mesh_0004

# Faces
f 1/1/1 2/2/1 3/3/1 4/4/1
f 5/1/1 6/2/1 7/3/1 8/4/1
f 9/5/1 10/1/1 11/4/1 12/6/1
f 13/5/1 14/1/1 15/4/1 16/6/1
f 17/7/1 18/8/1 19/9/1 20/10/1
f 21/1/1 22/2/1 23/3/1 24/4/1
f 25/5/1 26/1/1 27/4/1 28/6/1
f 29/7/1 30/8/1 31/9/1 32/10/1
f 33/1/1 34/2/1 35/3/1 36/4/1
f 37/5/1 38/1/1 39/4/1 40/6/1

