# Tiled2Unity generated file. Do not modify by hand.
# Wavefront file for 'Map_mesh_0007.obj'

# Vertices (Count = 20)
v -40 -146 0
v -42 -146 0
v -42 -144 0
v -40 -144 0
v -24 -174 0
v -26 -174 0
v -26 -172 0
v -24 -172 0
v -24 -176 0
v -26 -176 0
v -26 -174 0
v -24 -174 0
v -48 -176 0
v -50 -176 0
v -50 -174 0
v -48 -174 0
v -42 -186 0
v -44 -186 0
v -44 -184 0
v -42 -184 0

# Texture cooridinates (Count = 11)
vt 0.05 0.5833334
vt 0.075 0.5833334
vt 0.075 0.6111111
vt 0.05 0.6111111
vt 0.75 0.9722222
vt 0.775 0.9722222
vt 0.775 1
vt 0.75 1
vt 0.775 0.9444444
vt 0.8 0.9444444
vt 0.8 0.9722222

# Normal
vn 0 0 -1

# Mesh description
g Map_mesh_0007

# Faces
f 1/1/1 2/2/1 3/3/1 4/4/1
f 5/5/1 6/6/1 7/7/1 8/8/1
f 9/9/1 10/10/1 11/11/1 12/6/1
f 13/1/1 14/2/1 15/3/1 16/4/1
f 17/1/1 18/2/1 19/3/1 20/4/1

