# Tiled2Unity generated file. Do not modify by hand.
# Wavefront file for 'Map_mesh_0006.obj'

# Vertices (Count = 448)
v -36 -132 0
v -38 -132 0
v -38 -130 0
v -36 -130 0
v -38 -132 0
v -40 -132 0
v -40 -130 0
v -38 -130 0
v -40 -132 0
v -42 -132 0
v -42 -130 0
v -40 -130 0
v -42 -132 0
v -44 -132 0
v -44 -130 0
v -42 -130 0
v -44 -132 0
v -46 -132 0
v -46 -130 0
v -44 -130 0
v -36 -134 0
v -38 -134 0
v -38 -132 0
v -36 -132 0
v -38 -134 0
v -40 -134 0
v -40 -132 0
v -38 -132 0
v -40 -134 0
v -42 -134 0
v -42 -132 0
v -40 -132 0
v -42 -134 0
v -44 -134 0
v -44 -132 0
v -42 -132 0
v -44 -134 0
v -46 -134 0
v -46 -132 0
v -44 -132 0
v -36 -136 0
v -38 -136 0
v -38 -134 0
v -36 -134 0
v -38 -136 0
v -40 -136 0
v -40 -134 0
v -38 -134 0
v -44 -136 0
v -46 -136 0
v -46 -134 0
v -44 -134 0
v -38 -138 0
v -40 -138 0
v -40 -136 0
v -38 -136 0
v -44 -138 0
v -46 -138 0
v -46 -136 0
v -44 -136 0
v -46 -138 0
v -48 -138 0
v -48 -136 0
v -46 -136 0
v -38 -140 0
v -40 -140 0
v -40 -138 0
v -38 -138 0
v -46 -140 0
v -48 -140 0
v -48 -138 0
v -46 -138 0
v -36 -142 0
v -38 -142 0
v -38 -140 0
v -36 -140 0
v -38 -142 0
v -40 -142 0
v -40 -140 0
v -38 -140 0
v -46 -142 0
v -48 -142 0
v -48 -140 0
v -46 -140 0
v -36 -144 0
v -38 -144 0
v -38 -142 0
v -36 -142 0
v -46 -144 0
v -48 -144 0
v -48 -142 0
v -46 -142 0
v -36 -146 0
v -38 -146 0
v -38 -144 0
v -36 -144 0
v -46 -146 0
v -48 -146 0
v -48 -144 0
v -46 -144 0
v -36 -148 0
v -38 -148 0
v -38 -146 0
v -36 -146 0
v -46 -148 0
v -48 -148 0
v -48 -146 0
v -46 -146 0
v -36 -150 0
v -38 -150 0
v -38 -148 0
v -36 -148 0
v -38 -150 0
v -40 -150 0
v -40 -148 0
v -38 -148 0
v -44 -150 0
v -46 -150 0
v -46 -148 0
v -44 -148 0
v -46 -150 0
v -48 -150 0
v -48 -148 0
v -46 -148 0
v -38 -152 0
v -40 -152 0
v -40 -150 0
v -38 -150 0
v -44 -152 0
v -46 -152 0
v -46 -150 0
v -44 -150 0
v -38 -154 0
v -40 -154 0
v -40 -152 0
v -38 -152 0
v -44 -154 0
v -46 -154 0
v -46 -152 0
v -44 -152 0
v -38 -156 0
v -40 -156 0
v -40 -154 0
v -38 -154 0
v -44 -156 0
v -46 -156 0
v -46 -154 0
v -44 -154 0
v -36 -158 0
v -38 -158 0
v -38 -156 0
v -36 -156 0
v -38 -158 0
v -40 -158 0
v -40 -156 0
v -38 -156 0
v -44 -158 0
v -46 -158 0
v -46 -156 0
v -44 -156 0
v -34 -160 0
v -36 -160 0
v -36 -158 0
v -34 -158 0
v -36 -160 0
v -38 -160 0
v -38 -158 0
v -36 -158 0
v -44 -160 0
v -46 -160 0
v -46 -158 0
v -44 -158 0
v -46 -160 0
v -48 -160 0
v -48 -158 0
v -46 -158 0
v -32 -162 0
v -34 -162 0
v -34 -160 0
v -32 -160 0
v -34 -162 0
v -36 -162 0
v -36 -160 0
v -34 -160 0
v -46 -162 0
v -48 -162 0
v -48 -160 0
v -46 -160 0
v -32 -164 0
v -34 -164 0
v -34 -162 0
v -32 -162 0
v -46 -164 0
v -48 -164 0
v -48 -162 0
v -46 -162 0
v -32 -166 0
v -34 -166 0
v -34 -164 0
v -32 -164 0
v -46 -166 0
v -48 -166 0
v -48 -164 0
v -46 -164 0
v -32 -168 0
v -34 -168 0
v -34 -166 0
v -32 -166 0
v -46 -168 0
v -48 -168 0
v -48 -166 0
v -46 -166 0
v -30 -170 0
v -32 -170 0
v -32 -168 0
v -30 -168 0
v -32 -170 0
v -34 -170 0
v -34 -168 0
v -32 -168 0
v -46 -170 0
v -48 -170 0
v -48 -168 0
v -46 -168 0
v -48 -170 0
v -50 -170 0
v -50 -168 0
v -48 -168 0
v -22 -172 0
v -24 -172 0
v -24 -170 0
v -22 -170 0
v -24 -172 0
v -26 -172 0
v -26 -170 0
v -24 -170 0
v -26 -172 0
v -28 -172 0
v -28 -170 0
v -26 -170 0
v -28 -172 0
v -30 -172 0
v -30 -170 0
v -28 -170 0
v -30 -172 0
v -32 -172 0
v -32 -170 0
v -30 -170 0
v -48 -172 0
v -50 -172 0
v -50 -170 0
v -48 -170 0
v -50 -172 0
v -52 -172 0
v -52 -170 0
v -50 -170 0
v -22 -174 0
v -24 -174 0
v -24 -172 0
v -22 -172 0
v -28 -174 0
v -30 -174 0
v -30 -172 0
v -28 -172 0
v -30 -174 0
v -32 -174 0
v -32 -172 0
v -30 -172 0
v -34 -174 0
v -36 -174 0
v -36 -172 0
v -34 -172 0
v -36 -174 0
v -38 -174 0
v -38 -172 0
v -36 -172 0
v -38 -174 0
v -40 -174 0
v -40 -172 0
v -38 -172 0
v -50 -174 0
v -52 -174 0
v -52 -172 0
v -50 -172 0
v -52 -174 0
v -54 -174 0
v -54 -172 0
v -52 -172 0
v -22 -176 0
v -24 -176 0
v -24 -174 0
v -22 -174 0
v -34 -176 0
v -36 -176 0
v -36 -174 0
v -34 -174 0
v -38 -176 0
v -40 -176 0
v -40 -174 0
v -38 -174 0
v -52 -176 0
v -54 -176 0
v -54 -174 0
v -52 -174 0
v -22 -178 0
v -24 -178 0
v -24 -176 0
v -22 -176 0
v -24 -178 0
v -26 -178 0
v -26 -176 0
v -24 -176 0
v -26 -178 0
v -28 -178 0
v -28 -176 0
v -26 -176 0
v -28 -178 0
v -30 -178 0
v -30 -176 0
v -28 -176 0
v -30 -178 0
v -32 -178 0
v -32 -176 0
v -30 -176 0
v -32 -178 0
v -34 -178 0
v -34 -176 0
v -32 -176 0
v -34 -178 0
v -36 -178 0
v -36 -176 0
v -34 -176 0
v -38 -178 0
v -40 -178 0
v -40 -176 0
v -38 -176 0
v -52 -178 0
v -54 -178 0
v -54 -176 0
v -52 -176 0
v -38 -180 0
v -40 -180 0
v -40 -178 0
v -38 -178 0
v -52 -180 0
v -54 -180 0
v -54 -178 0
v -52 -178 0
v -38 -182 0
v -40 -182 0
v -40 -180 0
v -38 -180 0
v -52 -182 0
v -54 -182 0
v -54 -180 0
v -52 -180 0
v -38 -184 0
v -40 -184 0
v -40 -182 0
v -38 -182 0
v -52 -184 0
v -54 -184 0
v -54 -182 0
v -52 -182 0
v -36 -186 0
v -38 -186 0
v -38 -184 0
v -36 -184 0
v -38 -186 0
v -40 -186 0
v -40 -184 0
v -38 -184 0
v -52 -186 0
v -54 -186 0
v -54 -184 0
v -52 -184 0
v -36 -188 0
v -38 -188 0
v -38 -186 0
v -36 -186 0
v -52 -188 0
v -54 -188 0
v -54 -186 0
v -52 -186 0
v -36 -190 0
v -38 -190 0
v -38 -188 0
v -36 -188 0
v -52 -190 0
v -54 -190 0
v -54 -188 0
v -52 -188 0
v -36 -192 0
v -38 -192 0
v -38 -190 0
v -36 -190 0
v -50 -192 0
v -52 -192 0
v -52 -190 0
v -50 -190 0
v -52 -192 0
v -54 -192 0
v -54 -190 0
v -52 -190 0
v -36 -194 0
v -38 -194 0
v -38 -192 0
v -36 -192 0
v -50 -194 0
v -52 -194 0
v -52 -192 0
v -50 -192 0
v -36 -196 0
v -38 -196 0
v -38 -194 0
v -36 -194 0
v -38 -196 0
v -40 -196 0
v -40 -194 0
v -38 -194 0
v -40 -196 0
v -42 -196 0
v -42 -194 0
v -40 -194 0
v -50 -196 0
v -52 -196 0
v -52 -194 0
v -50 -194 0
v -40 -198 0
v -42 -198 0
v -42 -196 0
v -40 -196 0
v -48 -198 0
v -50 -198 0
v -50 -196 0
v -48 -196 0
v -50 -198 0
v -52 -198 0
v -52 -196 0
v -50 -196 0
v -40 -200 0
v -42 -200 0
v -42 -198 0
v -40 -198 0
v -48 -200 0
v -50 -200 0
v -50 -198 0
v -48 -198 0

# Texture cooridinates (Count = 13)
vt 0 0.75
vt 0.25 0.75
vt 0.25 1
vt 0 1
vt 0.25 0.25
vt 0.5 0.25
vt 0.5 0.5
vt 0.25 0.5
vt 0 0
vt 0.25 0
vt 0 0.25
vt 0.5 0
vt 0 0.5

# Normal
vn 0 0 -1

# Mesh description
g Map_mesh_0006

# Faces
f 1/1/1 2/2/1 3/3/1 4/4/1
f 5/1/1 6/2/1 7/3/1 8/4/1
f 9/1/1 10/2/1 11/3/1 12/4/1
f 13/1/1 14/2/1 15/3/1 16/4/1
f 17/1/1 18/2/1 19/3/1 20/4/1
f 21/1/1 22/2/1 23/3/1 24/4/1
f 25/1/1 26/2/1 27/3/1 28/4/1
f 29/1/1 30/2/1 31/3/1 32/4/1
f 33/1/1 34/2/1 35/3/1 36/4/1
f 37/1/1 38/2/1 39/3/1 40/4/1
f 41/1/1 42/2/1 43/3/1 44/4/1
f 45/5/1 46/6/1 47/7/1 48/8/1
f 49/1/1 50/2/1 51/3/1 52/4/1
f 53/1/1 54/2/1 55/3/1 56/4/1
f 57/9/1 58/10/1 59/5/1 60/11/1
f 61/1/1 62/2/1 63/3/1 64/4/1
f 65/1/1 66/2/1 67/3/1 68/4/1
f 69/1/1 70/2/1 71/3/1 72/4/1
f 73/1/1 74/2/1 75/3/1 76/4/1
f 77/10/1 78/12/1 79/6/1 80/5/1
f 81/1/1 82/2/1 83/3/1 84/4/1
f 85/1/1 86/2/1 87/3/1 88/4/1
f 89/1/1 90/2/1 91/3/1 92/4/1
f 93/1/1 94/2/1 95/3/1 96/4/1
f 97/1/1 98/2/1 99/3/1 100/4/1
f 101/1/1 102/2/1 103/3/1 104/4/1
f 105/1/1 106/2/1 107/3/1 108/4/1
f 109/1/1 110/2/1 111/3/1 112/4/1
f 113/5/1 114/6/1 115/7/1 116/8/1
f 117/11/1 118/5/1 119/8/1 120/13/1
f 121/1/1 122/2/1 123/3/1 124/4/1
f 125/1/1 126/2/1 127/3/1 128/4/1
f 129/1/1 130/2/1 131/3/1 132/4/1
f 133/1/1 134/2/1 135/3/1 136/4/1
f 137/1/1 138/2/1 139/3/1 140/4/1
f 141/1/1 142/2/1 143/3/1 144/4/1
f 145/1/1 146/2/1 147/3/1 148/4/1
f 149/1/1 150/2/1 151/3/1 152/4/1
f 153/10/1 154/12/1 155/6/1 156/5/1
f 157/1/1 158/2/1 159/3/1 160/4/1
f 161/1/1 162/2/1 163/3/1 164/4/1
f 165/10/1 166/12/1 167/6/1 168/5/1
f 169/9/1 170/10/1 171/5/1 172/11/1
f 173/1/1 174/2/1 175/3/1 176/4/1
f 177/1/1 178/2/1 179/3/1 180/4/1
f 181/10/1 182/12/1 183/6/1 184/5/1
f 185/1/1 186/2/1 187/3/1 188/4/1
f 189/1/1 190/2/1 191/3/1 192/4/1
f 193/1/1 194/2/1 195/3/1 196/4/1
f 197/1/1 198/2/1 199/3/1 200/4/1
f 201/1/1 202/2/1 203/3/1 204/4/1
f 205/1/1 206/2/1 207/3/1 208/4/1
f 209/1/1 210/2/1 211/3/1 212/4/1
f 213/1/1 214/2/1 215/3/1 216/4/1
f 217/10/1 218/12/1 219/6/1 220/5/1
f 221/9/1 222/10/1 223/5/1 224/11/1
f 225/1/1 226/2/1 227/3/1 228/4/1
f 229/1/1 230/2/1 231/3/1 232/4/1
f 233/1/1 234/2/1 235/3/1 236/4/1
f 237/1/1 238/2/1 239/3/1 240/4/1
f 241/1/1 242/2/1 243/3/1 244/4/1
f 245/1/1 246/2/1 247/3/1 248/4/1
f 249/9/1 250/10/1 251/5/1 252/11/1
f 253/1/1 254/2/1 255/3/1 256/4/1
f 257/1/1 258/2/1 259/3/1 260/4/1
f 261/9/1 262/10/1 263/5/1 264/11/1
f 265/10/1 266/12/1 267/6/1 268/5/1
f 269/11/1 270/5/1 271/8/1 272/13/1
f 273/1/1 274/2/1 275/3/1 276/4/1
f 277/5/1 278/6/1 279/7/1 280/8/1
f 281/9/1 282/10/1 283/5/1 284/11/1
f 285/1/1 286/2/1 287/3/1 288/4/1
f 289/1/1 290/2/1 291/3/1 292/4/1
f 293/1/1 294/2/1 295/3/1 296/4/1
f 297/1/1 298/2/1 299/3/1 300/4/1
f 301/1/1 302/2/1 303/3/1 304/4/1
f 305/1/1 306/2/1 307/3/1 308/4/1
f 309/1/1 310/2/1 311/3/1 312/4/1
f 313/1/1 314/2/1 315/3/1 316/4/1
f 317/1/1 318/2/1 319/3/1 320/4/1
f 321/1/1 322/2/1 323/3/1 324/4/1
f 325/1/1 326/2/1 327/3/1 328/4/1
f 329/1/1 330/2/1 331/3/1 332/4/1
f 333/1/1 334/2/1 335/3/1 336/4/1
f 337/1/1 338/2/1 339/3/1 340/4/1
f 341/1/1 342/2/1 343/3/1 344/4/1
f 345/1/1 346/2/1 347/3/1 348/4/1
f 349/1/1 350/2/1 351/3/1 352/4/1
f 353/1/1 354/2/1 355/3/1 356/4/1
f 357/1/1 358/2/1 359/3/1 360/4/1
f 361/1/1 362/2/1 363/3/1 364/4/1
f 365/1/1 366/2/1 367/3/1 368/4/1
f 369/10/1 370/12/1 371/6/1 372/5/1
f 373/1/1 374/2/1 375/3/1 376/4/1
f 377/1/1 378/2/1 379/3/1 380/4/1
f 381/1/1 382/2/1 383/3/1 384/4/1
f 385/1/1 386/2/1 387/3/1 388/4/1
f 389/1/1 390/2/1 391/3/1 392/4/1
f 393/1/1 394/2/1 395/3/1 396/4/1
f 397/11/1 398/5/1 399/8/1 400/13/1
f 401/1/1 402/2/1 403/3/1 404/4/1
f 405/1/1 406/2/1 407/3/1 408/4/1
f 409/1/1 410/2/1 411/3/1 412/4/1
f 413/1/1 414/2/1 415/3/1 416/4/1
f 417/1/1 418/2/1 419/3/1 420/4/1
f 421/5/1 422/6/1 423/7/1 424/8/1
f 425/1/1 426/2/1 427/3/1 428/4/1
f 429/1/1 430/2/1 431/3/1 432/4/1
f 433/11/1 434/5/1 435/8/1 436/13/1
f 437/1/1 438/2/1 439/3/1 440/4/1
f 441/1/1 442/2/1 443/3/1 444/4/1
f 445/1/1 446/2/1 447/3/1 448/4/1

